<svg width="60" height="60" viewBox="0 0 60 60" fill="none" xmlns="http://www.w3.org/2000/svg">
<path d="M60 30C60 46.5685 46.5685 60 30 60C13.4315 60 0 46.5685 0 30C0 13.4315 13.4315 0 30 0C46.5685 0 60 13.4315 60 30Z" fill="white"/>
<path d="M29.2269 10.8241C29.2269 12.3838 27.9625 13.6481 26.4028 13.6481C24.8431 13.6481 23.5787 12.3838 23.5787 10.8241C23.5787 9.26438 24.8431 8 26.4028 8C27.9625 8 29.2269 9.26438 29.2269 10.8241Z" fill="#181D46"/>
<path d="M39.1111 13.6482C39.1111 15.0779 37.9521 16.2369 36.5224 16.2369C35.0927 16.2369 33.9337 15.0779 33.9337 13.6482C33.9337 12.2185 35.0927 11.0594 36.5224 11.0594C37.9521 11.0594 39.1111 12.2185 39.1111 13.6482Z" fill="#181D46"/>
<path d="M48.054 24.0031C48.054 25.1728 47.1057 26.1211 45.936 26.1211C44.7662 26.1211 43.8179 25.1728 43.8179 24.0031C43.8179 22.8333 44.7662 21.885 45.936 21.885C47.1057 21.885 48.054 22.8333 48.054 24.0031Z" fill="#181D46"/>
<path d="M16.9892 27.7685C16.9892 28.8082 16.1463 29.6512 15.1065 29.6512C14.0667 29.6512 13.2238 28.8082 13.2238 27.7685C13.2238 26.7287 14.0667 25.8857 15.1065 25.8857C16.1463 25.8857 16.9892 26.7287 16.9892 27.7685Z" fill="#181D46"/>
<path d="M22.2895 18.3932C22.2244 15.8788 24.3858 13.8808 26.8874 14.1429V14.1429C29.0644 14.3711 30.6934 16.2454 30.6158 18.4329L30.2298 29.3245C30.1907 30.4269 29.6668 31.4557 28.7983 32.1356V32.1356C27.3159 33.2959 25.2019 33.1729 23.8642 31.8484L23.7332 31.7187C23.0096 31.0023 22.5909 30.0339 22.5646 29.016L22.2895 18.3932Z" fill="#181D46"/>
<path d="M21.3193 16.7328C22.0004 14.8763 24.0442 13.9086 25.9121 14.5583V14.5583L20.7546 23.5324L19.3426 22.1203L21.3193 16.7328Z" fill="#181D46"/>
<path d="M30.9046 15.1388C29.5429 13.8896 27.379 14.1966 26.4185 15.7753V15.7753L34.8963 21.2487L36.0404 19.8501L30.9046 15.1388Z" fill="#181D46"/>
<path d="M19.3426 22.1202L21.2297 22.606L19.3426 26.3564L18.1569 24.9472L19.3426 22.1202Z" fill="#181D46"/>
<path d="M22.5332 27.9047L27.9606 28.6054L24.4488 38.9945L21.3582 37.6836L22.5332 27.9047Z" fill="#181D46"/>
<path d="M21.3672 37.4295C21.5101 35.3647 24.5142 35.2831 24.769 37.3371V37.3371C24.7948 37.5457 24.782 37.7573 24.7311 37.9613L22.4503 47.1043C22.3479 47.5149 21.968 47.7947 21.5454 47.7706V47.7706C21.0555 47.7427 20.6828 47.3198 20.7167 46.8302L21.3672 37.4295Z" fill="#181D46"/>
<path d="M30.1682 27.7685L24.7784 28.6054L28.2902 38.9945L31.3288 37.6527L30.1682 27.7685Z" fill="#181D46"/>
<path d="M31.3611 37.9463C31.2972 36.1981 28.9278 35.7154 28.185 37.2991V37.2991C28.0257 37.639 27.9856 38.0226 28.0713 38.3881L30.1316 47.1689C30.219 47.5412 30.5605 47.7975 30.9424 47.7774V47.7774C31.3733 47.7547 31.7063 47.3906 31.6905 46.9595L31.3611 37.9463Z" fill="#181D46"/>
<path d="M33.1148 20.5306C32.9527 18.4195 34.6449 16.6281 36.7618 16.6699V16.6699C38.9739 16.7134 40.6194 18.7299 40.2186 20.9058L39.4003 25.3478C39.1325 26.8016 37.8453 27.8435 36.3676 27.8024V27.8024C34.8328 27.7598 33.5781 26.5649 33.4605 25.0341L33.1148 20.5306Z" fill="#181D46"/>
<path d="M33.8136 18.0701L34.7735 20.1329L29.2791 25.7487L28.3725 24.9246L33.8136 18.0701Z" fill="#181D46"/>
<path d="M40.0905 18.9592C39.5692 17.9061 37.9746 18.4007 38.1407 19.5639V19.5639C38.1599 19.698 38.2052 19.827 38.2741 19.9436L43.271 28.4013C43.5098 28.8054 44.0792 28.8453 44.3719 28.4784V28.4784C44.5341 28.2751 44.5641 27.9963 44.4487 27.7631L40.0905 18.9592Z" fill="#181D46"/>
<path d="M33.8483 24.2414C34.0046 23.8711 34.3676 23.6304 34.7695 23.6304H38.0277C38.4773 23.6304 38.8717 23.9304 38.9915 24.3638L42.2272 36.0621C42.408 36.7158 41.8994 37.356 41.2218 37.3278L29.9863 36.8596C29.2891 36.8306 28.8352 36.1144 29.1067 35.4715L33.8483 24.2414Z" fill="#181D46"/>
<path d="M43.0281 29.1906C43.1124 27.6482 44.3877 26.4407 45.9323 26.4407V26.4407C47.7155 26.4407 49.0788 28.0305 48.807 29.7928L47.963 35.2642C47.7438 36.6851 46.4265 37.6683 45.002 37.4742V37.4742C43.6413 37.2888 42.6509 36.0897 42.7258 34.7185L43.0281 29.1906Z" fill="#181D46"/>
<path d="M39.0813 31.0929L44.7593 26.8272L45.227 28.1664L40.1056 32.5562L39.0813 31.0929Z" fill="#181D46"/>
<path d="M51.3286 32.8429C51.6208 32.5855 51.666 32.1466 51.4323 31.835L48.2701 27.6188C47.9206 27.1528 47.2407 27.1012 46.8249 27.5093V27.5093C46.4587 27.8687 46.4386 28.4521 46.7791 28.8359L50.2768 32.7782C50.5497 33.0858 51.02 33.1148 51.3286 32.8429V32.8429Z" fill="#181D46"/>
<path d="M46.4046 36.3079C46.514 36.7324 47.0368 36.8866 47.3591 36.5894L51.3542 32.9044C51.6231 32.6564 51.6745 32.251 51.476 31.9438V31.9438C51.2123 31.5356 50.6364 31.481 50.3008 31.8324L46.5467 35.7627C46.4083 35.9077 46.3545 36.1138 46.4046 36.3079V36.3079Z" fill="#181D46"/>
<path d="M42.8236 33.8432C43.1219 32.46 44.8404 31.9657 45.828 32.9791V32.9791C46.3221 33.486 46.4675 34.2381 46.198 34.8927L44.2114 39.7171C43.8277 40.649 42.5786 40.815 41.9648 40.0158V40.0158C41.7308 39.7111 41.6426 39.3189 41.7236 38.9434L42.8236 33.8432Z" fill="#181D46"/>
<path d="M47.5817 34.7893C47.4016 33.8955 46.5059 33.338 45.6244 33.5709V33.5709C44.7136 33.8115 44.2128 34.7892 44.5498 35.6689L46.5581 40.9118C46.8306 41.6232 47.7207 41.8575 48.3082 41.3725V41.3725C48.6252 41.1108 48.7724 40.6959 48.6912 40.2929L47.5817 34.7893Z" fill="#181D46"/>
<path d="M41.7352 38.847C41.8058 37.7183 43.2291 37.2687 43.9353 38.1521V38.1521C44.1596 38.4327 44.2508 38.7971 44.1851 39.1504L42.761 46.806C42.7112 47.074 42.5223 47.2951 42.2653 47.386V47.386C41.7495 47.5686 41.2147 47.165 41.2489 46.6188L41.7352 38.847Z" fill="#181D46"/>
<path d="M48.7034 40.4016C48.6921 39.7892 48.1925 39.2987 47.58 39.2987V39.2987C46.8921 39.2987 46.3658 39.9112 46.4692 40.5912L47.4742 47.2001C47.5215 47.5115 47.7765 47.7495 48.0903 47.7755V47.7755C48.4915 47.8087 48.8335 47.4879 48.8261 47.0854L48.7034 40.4016Z" fill="#181D46"/>
<path d="M32.1112 36.0474C32.0759 35.202 32.6265 34.4433 33.4413 34.2148V34.2148C34.7479 33.8483 35.983 34.986 35.7249 36.3183L34.9871 40.1264C34.8947 40.6036 34.5564 40.9961 34.098 41.1579V41.1579C33.2292 41.4645 32.3115 40.8435 32.273 39.923L32.1112 36.0474Z" fill="#181D46"/>
<path d="M40.0358 35.5284C40.0459 34.8184 39.6316 34.1709 38.9828 33.8825V33.8825C37.6614 33.2952 36.2303 34.4513 36.5268 35.8667L37.4536 40.2912C37.6158 41.0653 38.4373 41.5055 39.1716 41.2117V41.2117C39.6486 41.021 39.964 40.5621 39.9714 40.0485L40.0358 35.5284Z" fill="#181D46"/>
<path d="M32.2513 39.7047C32.2407 38.9736 32.7947 38.3576 33.5228 38.2908V38.2908C34.4412 38.2064 35.1886 39.018 35.0292 39.9264L33.7538 47.1925C33.6947 47.5287 33.4027 47.774 33.0613 47.774V47.774C32.6769 47.774 32.3638 47.4654 32.3582 47.0811L32.2513 39.7047Z" fill="#181D46"/>
<path d="M40.0263 37.3544C40.0394 36.33 39.0614 35.5825 38.0763 35.8639V35.8639C37.3259 36.0783 36.8572 36.8232 36.9885 37.5924L38.6359 47.2429C38.688 47.5481 38.9519 47.7718 39.2615 47.7732V47.7732C39.6116 47.7748 39.8975 47.4938 39.902 47.1437L40.0263 37.3544Z" fill="#181D46"/>
<path d="M12.961 32.4205C12.8267 31.3207 13.6122 30.3213 14.7126 30.1918L15.7247 30.0727C16.8145 29.9445 17.8041 30.7183 17.9425 31.8068L18.3555 35.0553C18.49 36.1139 17.7699 37.0917 16.719 37.2771L15.6979 37.4573C14.5691 37.6565 13.5041 36.868 13.3651 35.7302L12.961 32.4205Z" fill="#181D46"/>
<path d="M13.3183 36.3013C13.5112 35.7793 13.9129 35.3613 14.4268 35.1478L17.4599 33.8873L20.6237 37.4817C21.6569 38.6555 21.0039 40.5076 19.4631 40.7739L14.5529 41.6226C13.0344 41.885 11.8021 40.4039 12.3363 38.9585L13.3183 36.3013Z" fill="#181D46"/>
<path d="M16.4881 32.4127C15.4172 32.2788 15.1192 30.8673 16.0446 30.312L19.1029 28.4769C19.4111 28.2919 19.8035 28.327 20.0741 28.5637V28.5637C20.4526 28.895 20.4508 29.4845 20.0702 29.8133L17.3714 32.1451C17.1281 32.3553 16.8071 32.4526 16.4881 32.4127V32.4127Z" fill="#181D46"/>
<path d="M15.312 32.4571C15.2604 32.0569 15.0314 31.7011 14.6885 31.4882L11.6221 29.5849C11.2515 29.3549 10.7706 29.4145 10.4673 29.728V29.728C10.1156 30.0916 10.1205 30.6702 10.4784 31.0278L13.0315 33.5787C13.9375 34.484 15.4759 33.7274 15.312 32.4571V32.4571Z" fill="#181D46"/>
<path d="M18.1307 25.2738C18.055 24.8572 18.375 24.4738 18.7984 24.4738V24.4738C19.1164 24.4738 19.3918 24.6945 19.4609 25.0049L20.3114 28.8254C20.4273 29.346 19.9818 29.8195 19.4551 29.7355V29.7355C19.1385 29.685 18.8882 29.4401 18.8309 29.1247L18.1307 25.2738Z" fill="#181D46"/>
<path d="M13.6208 39.8503C13.6208 39.493 13.7776 39.1538 14.0497 38.9223V38.9223C14.9401 38.1647 16.2829 38.9743 16.0285 40.1154L15.2335 43.6814C15.1454 44.0765 14.7809 44.3473 14.3772 44.3177V44.3177C13.9508 44.2864 13.6208 43.9313 13.6208 43.5038L13.6208 39.8503Z" fill="#181D46"/>
<path d="M13.6295 43.6291C13.6162 43.1746 13.981 42.799 14.4357 42.799V42.799C14.8997 42.799 15.268 43.1896 15.2407 43.6528L15.0344 47.1608C15.0141 47.5051 14.729 47.774 14.384 47.774V47.774C14.0317 47.774 13.7432 47.4939 13.7329 47.1417L13.6295 43.6291Z" fill="#181D46"/>
<path d="M17.3309 39.3458C17.2667 38.1895 18.7062 37.6111 19.4598 38.4904V38.4904C19.657 38.7205 19.7608 39.0161 19.7507 39.319L19.6294 42.9583C19.6233 43.1415 19.5693 43.3198 19.4729 43.4757V43.4757C18.9326 44.3484 17.5899 44.0064 17.5329 42.9815L17.3309 39.3458Z" fill="#181D46"/>
<path d="M17.5876 42.8341C17.6643 42.5207 17.8861 42.2628 18.1845 42.1402V42.1402C19.0247 41.7949 19.858 42.648 19.493 43.4798L17.7773 47.3902C17.6442 47.6935 17.3013 47.8446 16.9877 47.7383V47.7383C16.6741 47.632 16.4938 47.3036 16.5725 46.982L17.5876 42.8341Z" fill="#181D46"/>
<path d="M12.5913 30.8646C12.5193 30.6824 12.6361 30.4807 12.83 30.4525L15.0129 30.1355C15.0739 30.1267 15.136 30.1367 15.1911 30.1642V30.1642C15.4549 30.2961 15.3919 30.6892 15.1002 30.7321L12.9179 31.0534C12.7784 31.0739 12.6431 30.9957 12.5913 30.8646V30.8646Z" fill="#181D46"/>
<path d="M14.5442 31.0449C14.0835 30.9528 14.0942 30.2906 14.5576 30.2134L17.6439 29.699C17.805 29.6722 17.9591 29.7753 17.9957 29.9345V29.9345C18.0335 30.0992 17.9318 30.2638 17.7675 30.3037L14.7267 31.0412C14.6668 31.0557 14.6045 31.057 14.5442 31.0449V31.0449Z" fill="#181D46"/>
<path d="M8.82696 26.3957C8.79802 26.3093 8.78985 26.2173 8.80314 26.1271V26.1271C8.88695 25.5583 9.6586 25.4455 9.90174 25.9665L11.7704 29.9706C11.9778 30.4152 11.7567 30.9418 11.2941 31.1049V31.1049C10.8567 31.2592 10.3778 31.0253 10.2305 30.5856L8.82696 26.3957Z" fill="#181D46"/>
<path d="M23.5814 15.871C23.303 15.1864 23.7516 14.4245 24.4853 14.3358L25.8947 14.1655C26.3485 14.1107 26.7623 14.4303 26.8239 14.8832V14.8832C26.8324 14.9452 26.8338 15.0079 26.8283 15.0701L26.8266 15.0894C26.7844 15.5638 26.4161 15.944 25.9433 16.0013L24.168 16.2163C23.9169 16.2467 23.6766 16.1053 23.5814 15.871V15.871Z" fill="#181D46"/>
<path d="M29.7898 15.8748C30.0676 15.1917 29.6144 14.4325 28.8813 14.3528L26.9343 14.1412C26.5528 14.0998 26.2076 14.3696 26.1559 14.7499V14.7499C26.1358 14.8972 26.1626 15.0471 26.2325 15.1783L26.3138 15.3309C26.5047 15.6895 26.8587 15.9322 27.262 15.981L29.2088 16.2168C29.4575 16.2469 29.6955 16.1068 29.7898 15.8748V15.8748Z" fill="#181D46"/>
</svg>
