<svg width="60" height="60" viewBox="0 0 60 60" fill="none" xmlns="http://www.w3.org/2000/svg">
<circle cx="30" cy="30" r="30" fill="white"/>
<path d="M12 20.4543C12 20.2976 12 20.2192 12.0224 20.1469C12.0412 20.0865 12.073 20.0274 12.1129 19.9785C12.1609 19.9198 12.2244 19.8778 12.3514 19.7937C16.5879 16.9902 20.5821 16.3337 24.1127 17.6578C26.1215 18.4112 27.4089 20.0717 29.8996 21.6937C30.0407 21.7856 30.1113 21.8316 30.1594 21.8891C30.2011 21.9391 30.2308 21.9929 30.251 22.0547C30.2742 22.1261 30.2755 22.202 30.2781 22.3538C30.3401 25.9644 30.7345 51.2575 29.5263 45.7624C28.9051 42.9369 26.4811 40.9136 22.218 39.9644C18.9718 39.2416 15.912 39.3282 13.7481 40.516C12.9809 40.9372 12.5972 41.1477 12.4351 41.1265C12.2731 41.1053 12.1932 41.058 12.0966 40.9262C12 40.7943 12 40.4228 12 39.6798V20.4543Z" fill="#181D46"/>
<path d="M48 20.4543C48 20.2976 48 20.2192 47.9776 20.1469C47.9588 20.0865 47.927 20.0274 47.8871 19.9785C47.8391 19.9198 47.7756 19.8778 47.6486 19.7937C43.4121 16.9902 39.4179 16.3337 35.8873 17.6578C33.8785 18.4112 32.5911 20.0717 30.1004 21.6937C29.9593 21.7856 29.8887 21.8316 29.8406 21.8891C29.7989 21.9391 29.7692 21.9929 29.749 22.0547C29.7258 22.1261 29.7245 22.202 29.7219 22.3538C29.6599 25.9644 29.2655 51.2575 30.4737 45.7624C31.0949 42.9369 33.5189 40.9136 37.782 39.9644C41.0282 39.2416 44.088 39.3282 46.2519 40.516C47.0191 40.9372 47.4028 41.1477 47.5649 41.1265C47.7269 41.1053 47.8068 41.058 47.9034 40.9262C48 40.7943 48 40.4228 48 39.6798V20.4543Z" fill="#181D46"/>
<rect x="29.0526" y="19.8477" width="1.89474" height="27.5273" fill="white"/>
</svg>
