<svg width="59" height="59" viewBox="0 0 59 59" fill="none" xmlns="http://www.w3.org/2000/svg">
<circle cx="29.5" cy="29.5" r="29.5" fill="white"/>
<path d="M21.1972 21.6929C21.3329 20.5967 22.3315 19.818 23.4277 19.9537L26.405 20.3223L29.3823 20.6908C30.4785 20.8265 31.2571 21.8252 31.1214 22.9214V22.9214C30.9857 24.0176 29.9871 24.7962 28.8909 24.6605L22.9363 23.9234C21.8401 23.7877 21.0615 22.7891 21.1972 21.6929V21.6929V21.6929Z" fill="white"/>
<rect x="33.3519" y="21.1821" width="10" height="4" rx="2" transform="rotate(7.0566 33.3519 21.1821)" fill="white"/>
<path d="M21.1971 21.6929L20.9514 23.6777L30.0487 24.8038L30.2944 22.819M43.0305 24.3956L42.7848 26.3804M33.9333 23.2694L33.6876 25.2543L42.3299 26.3241" stroke="white"/>
<rect x="20.0819" y="22.5624" width="1" height="1" transform="rotate(7.0566 20.0819 22.5624)" fill="white"/>
<rect x="30.9985" y="23.9137" width="2" height="1" transform="rotate(7.0566 30.9985 23.9137)" fill="white"/>
<rect x="42.9077" y="25.3879" width="1" height="1" transform="rotate(7.0566 42.9077 25.3879)" fill="white"/>
<rect x="44.8926" y="25.6337" width="1" height="1" transform="rotate(7.0566 44.8926 25.6337)" fill="white"/>
<circle cx="33.5314" cy="15.6624" r="3.5" transform="rotate(7.0566 33.5314 15.6624)" fill="#181D46"/>
<path d="M20.1046 20.8845C20.1263 19.8845 20.9517 19.0898 21.9519 19.1061L31.0736 19.2546V19.2546C31.4033 19.2954 31.6486 19.5791 31.6414 19.9112L31.6167 21.0472C31.5939 22.0991 30.7226 22.9334 29.6707 22.9106L21.8828 22.7416C20.879 22.7198 20.0828 21.8883 20.1046 20.8845V20.8845Z" fill="#181D46"/>
<path d="M23.4042 41.2054C22.3392 40.9121 21.7137 39.811 22.007 38.7461L24.4234 29.9731C24.7167 28.9081 25.8178 28.2826 26.8827 28.5759L27.3964 28.7174C28.4613 29.0107 29.0868 30.1118 28.7935 31.1767L26.3772 39.9498C26.0839 41.0147 24.9828 41.6402 23.9179 41.3469L23.4042 41.2054Z" fill="#181D46"/>
<path d="M38.3087 40.6937C37.5994 41.3401 36.5309 41.3916 35.7628 40.8163L28.3741 35.283C27.4671 34.6038 27.305 33.3075 28.0167 32.4259L28.3113 32.061C29.0026 31.2046 30.256 31.0678 31.1158 31.7548L38.3447 37.5302C39.3055 38.2978 39.3525 39.7426 38.4434 40.571L38.3087 40.6937Z" fill="#181D46"/>
<path d="M27.065 45.8259C26.3515 44.8004 26.6044 43.3906 27.63 42.677L35.1309 37.458C35.9561 36.8839 37.0624 36.9283 37.8388 37.5668V37.5668C38.9853 38.5097 38.9173 40.2859 37.7021 41.1384L30.221 46.3859C29.1954 47.1052 27.7805 46.8542 27.065 45.8259V45.8259Z" fill="#181D46"/>
<path d="M16.1206 47.5074C15.2156 46.6201 15.2012 45.1671 16.0885 44.262L22.2645 37.9626C23.0707 37.1403 24.3466 37.0047 25.3076 37.6391V37.6391C26.5908 38.4861 26.7609 40.303 25.6573 41.3735L19.3251 47.5159C18.4315 48.3827 17.0097 48.3789 16.1206 47.5074V47.5074Z" fill="#181D46"/>
<path d="M32.7861 20.5044C33.6509 20.0727 34.7022 20.3655 35.2193 21.1822L39.7591 28.3513C40.1483 28.9659 40.0077 29.7755 39.4339 30.2228V30.2228V30.2228C38.0045 31.2397 36.0064 30.763 35.19 29.2103L31.9598 23.0671C31.4683 22.1323 31.841 20.976 32.7861 20.5044V20.5044Z" fill="#181D46"/>
<path d="M36.5437 29.929C35.9992 29.0918 36.2546 27.9702 37.1078 27.4512L40.9167 25.1345C41.7664 24.6176 42.8742 24.8875 43.391 25.7372V25.7372C43.9129 26.5951 43.6322 27.7141 42.7673 28.2242L38.9271 30.4888C38.1109 30.9702 37.0603 30.7234 36.5437 29.929V29.929Z" fill="#181D46"/>
<path d="M34.1434 21.3425C35.2052 21.647 35.819 22.7546 35.5145 23.8164L32.6164 33.9202C32.3084 34.9941 31.1803 35.6074 30.1116 35.2821L25.3876 33.8444C24.3515 33.529 23.7547 32.4462 24.0413 31.4017L26.8023 21.3414C27.097 20.2675 28.212 19.6412 29.2824 19.9482L34.1434 21.3425Z" fill="#181D46"/>
<path d="M21.3582 30.3656C20.358 30.3074 19.5952 29.448 19.656 28.448L20.0783 21.5038C20.1407 20.4776 21.0476 19.7116 22.0698 19.8218V19.8218C23.0249 19.9247 23.7312 20.7588 23.6754 21.7178L23.2712 28.6631C23.2131 29.6615 22.3566 30.4237 21.3582 30.3656V30.3656Z" fill="#181D46"/>
<rect x="30.5156" y="19.131" width="2.64663" height="6.33276" rx="1.32331" transform="rotate(25.7076 30.5156 19.131)" fill="#181D46"/>
<path d="M28.3477 22.8027C28.0278 20.6617 30.0115 18.897 32.1006 19.4641L33.8556 19.9405V19.9405C35.5099 20.5291 35.8129 22.7383 34.3781 23.7505L32.1909 25.2934C31.4885 25.789 30.5727 25.8651 29.7981 25.4922V25.4922C29.0913 25.1519 28.5989 24.4838 28.483 23.7081L28.3477 22.8027Z" fill="#181D46"/>
</svg>
