<svg width="60" height="60" viewBox="0 0 60 60" fill="none" xmlns="http://www.w3.org/2000/svg">
<circle cx="30" cy="30" r="30" fill="white"/>
<path d="M14 27.9613C14 27.8045 14 27.7262 14.0226 27.6537C14.0413 27.5934 14.0734 27.5338 14.1134 27.485C14.1616 27.4263 14.2248 27.3847 14.3514 27.3013C18.1026 24.8311 21.6394 24.2556 24.7669 25.4285C26.5415 26.094 27.6827 27.556 29.87 28.9893C30.0114 29.082 30.0821 29.1283 30.1299 29.1858C30.1715 29.2358 30.2009 29.2892 30.221 29.3511C30.2441 29.4222 30.2454 29.4976 30.248 29.6485C30.3055 33.0199 30.6479 55.2723 29.5789 50.4103C29.0268 47.8988 26.8721 46.1003 23.0827 45.2566C20.308 44.6388 17.6865 44.6862 15.779 45.6295C14.9785 46.0254 14.5783 46.2233 14.4204 46.1979C14.2591 46.1718 14.1876 46.1274 14.0928 45.9944C14 45.8642 14 45.4927 14 44.7497V27.9613Z" fill="#181D46"/>
<path d="M46 27.9613C46 27.8045 46 27.7262 45.9774 27.6537C45.9587 27.5934 45.9266 27.5338 45.8866 27.485C45.8384 27.4263 45.7752 27.3847 45.6486 27.3013C41.8974 24.8311 38.3606 24.2556 35.2331 25.4285C33.4585 26.094 32.3173 27.556 30.13 28.9893C29.9886 29.082 29.9179 29.1283 29.8701 29.1858C29.8285 29.2358 29.7991 29.2892 29.779 29.3511C29.7559 29.4222 29.7546 29.4976 29.752 29.6485C29.6945 33.0199 29.3521 55.2723 30.4211 50.4103C30.9732 47.8988 33.1279 46.1003 36.9173 45.2566C39.692 44.6388 42.3135 44.6862 44.221 45.6295C45.0215 46.0254 45.4217 46.2233 45.5796 46.1979C45.7409 46.1718 45.8124 46.1274 45.9072 45.9944C46 45.8642 46 45.4927 46 44.7497V27.9613Z" fill="#181D46"/>
<rect x="29.1578" y="27.375" width="1.68421" height="24.4688" fill="white"/>
<circle cx="30" cy="16.8438" r="5" fill="#181D46"/>
<path d="M28 19.424C28 19.424 36 17.424 34 17.924C32 18.424 32 24.424 32 24.424H28V19.424Z" fill="#181D46"/>
<path d="M32 19.424C32 19.424 24 17.424 26 17.924C28 18.424 28 24.424 28 24.424H32V19.424Z" fill="#181D46"/>
<path d="M28 24.3437C28 23.7915 28.4477 23.3438 29 23.3438H31C31.5523 23.3438 32 23.7915 32 24.3438V24.8438C32 25.396 31.5523 25.8438 31 25.8438H29C28.4477 25.8438 28 25.396 28 24.8437V24.3437Z" fill="#181D46"/>
<path d="M27 22.8438H33V23.8438H27V22.8438Z" fill="white"/>
<rect x="29.25" y="6.34375" width="1.5" height="4" rx="0.75" fill="#181D46"/>
<rect width="1.5" height="4" rx="0.75" transform="matrix(-0.664962 0.746878 0.746878 0.664962 23.0186 8.8147)" fill="#181D46"/>
<rect x="37.0086" y="8.8147" width="1.5" height="4" rx="0.75" transform="rotate(48.3206 37.0086 8.8147)" fill="#181D46"/>
<rect width="1.5" height="4" rx="0.75" transform="matrix(0 1 1 0 19.5 16.1832)" fill="#181D46"/>
<rect width="1.5" height="4" rx="0.75" transform="matrix(0 1 1 0 36.5 16.1832)" fill="#181D46"/>
</svg>
