<svg width="60" height="60" viewBox="0 0 60 60" fill="none" xmlns="http://www.w3.org/2000/svg">
<circle cx="30" cy="30" r="30" fill="#DF7452"/>
<path d="M39.5 37.9978C39.5 42.9696 35.1792 47 29.8492 47C24.5192 47 20.5 42.9739 20.5 38.0022C20.5 33.0304 24.8208 29 30.1508 29C35.4808 29 39.5 33.0261 39.5 37.9978Z" fill="#181D46"/>
<path d="M19.5 25H40.5L39.6 34.1689C32.5463 35.2965 28.3965 35.2574 20.7 34.1689L19.5 25Z" fill="#DF7452"/>
<path d="M19.5 23H40.5L39.6 32.1689C32.5463 33.2965 28.3965 33.2574 20.7 32.1689L19.5 23Z" fill="#181D46"/>
<path d="M28.5 20.0111C28.5 22.8226 25.3702 26 22.2144 26C19.0585 26 16.5001 22.8312 16.5001 20.0197C16.4755 16.9707 19.5897 13.6442 22.7858 14.0308C25.9416 14.0308 28.5 17.1996 28.5 20.0111Z" fill="#181D46"/>
<path d="M31.5 20.0111C31.5 22.8226 34.6298 26 37.7856 26C40.9415 26 43.4999 22.8312 43.4999 20.0197C43.5245 16.9707 40.4103 13.6442 37.2142 14.0308C34.0584 14.0308 31.5 17.1996 31.5 20.0111Z" fill="#181D46"/>
<path d="M36.5 17.4974C36.5 21.6522 33.3953 25 29.22 25C25.0447 25 22.5 21.6573 22.5 17.5026C22.5 13.3478 25.6047 10 29.78 10C33.9553 10 36.5 13.3427 36.5 17.4974Z" fill="#181D46"/>
<path d="M14.5 35C14.5 34.4477 14.9477 34 15.5 34V34V34C16.0523 34 16.5 34.4477 16.5 35V46C16.5 46.5523 16.0523 47 15.5 47V47C14.9477 47 14.5 46.5523 14.5 46V35Z" fill="#181D46"/>
<path d="M12.5 29C12.5 27.3431 13.8431 26 15.5 26V26C17.1569 26 18.5 27.3431 18.5 29V32C18.5 33.6569 17.1569 35 15.5 35V35V35C13.8431 35 12.5 33.6569 12.5 32V29Z" fill="#181D46"/>
<rect x="43.5" y="37" width="2" height="10" rx="1" fill="#181D46"/>
<path d="M43.5 29.8325V27.9449C43.5 27.2999 43.624 26.5992 44.0917 26.155C44.5045 25.7629 44.9836 25.9902 46.1469 28.3072C47.539 31.0801 47.7313 32.4475 47.2873 36.6944C47.1624 37.8885 44.8299 40.1423 43.7221 39.6794V39.6794C43.479 39.5778 43.5 39.3512 43.5 39.0877V29.8325Z" fill="#181D46"/>
</svg>
