<svg width="56" height="62" viewBox="0 0 56 62" fill="none" xmlns="http://www.w3.org/2000/svg">
<rect y="11" width="56" height="5" rx="2" fill="#181D46"/>
<rect x="16" width="24" height="15" rx="3" fill="#181D46"/>
<path d="M44.8931 16.3924C44.9654 15.0136 46.1417 13.9545 47.5206 14.0267V14.0267C48.8994 14.099 49.9586 15.2753 49.8863 16.6541L47.6843 58.6712C47.6093 60.1018 46.1476 61.5085 44.7243 61.3452V61.3452C43.197 61.1699 42.6227 59.716 42.7031 58.1807L44.8931 16.3924Z" fill="#181D46"/>
<path d="M11.042 15.1581C11.0063 14.4767 10.6891 13.8408 10.1662 13.4025V13.4025C9.21168 12.6025 7.80968 12.6426 6.90247 13.4959L6.85046 13.5448C6.30657 14.0564 6.01545 14.7815 6.05452 15.5271L8.27755 57.945C8.37878 59.8766 11.0565 61.8735 12.909 61.3172V61.3172C13.9772 60.9964 13.4126 60.3911 13.3542 59.2774L11.042 15.1581Z" fill="#181D46"/>
<path d="M13 61.5C11.8954 61.5 11 60.6046 11 59.5V58.5C11 57.3954 11.8954 56.5 13 56.5H44.5C45.6046 56.5 46.5 57.3954 46.5 58.5V59.5C46.5 60.6046 45.6046 61.5 44.5 61.5H13Z" fill="#181D46"/>
<path d="M26.5 21.5C26.5 20.6716 27.1716 20 28 20V20C28.8284 20 29.5 20.6716 29.5 21.5V50.5C29.5 51.3284 28.8284 52 28 52V52C27.1716 52 26.5 51.3284 26.5 50.5V21.5Z" fill="#181D46"/>
<path d="M35.4256 21.4536C35.469 20.6263 36.1748 19.9908 37.0021 20.0342V20.0342C37.8293 20.0776 38.4649 20.7834 38.4215 21.6106L36.9038 50.5709C36.8604 51.3982 36.1546 52.0337 35.3273 51.9903V51.9903C34.5 51.947 33.8645 51.2412 33.9079 50.4139L35.4256 21.4536Z" fill="#181D46"/>
<path d="M17.5785 21.5808C17.5351 20.7535 18.1707 20.0477 18.9979 20.0044V20.0044C19.8252 19.961 20.531 20.5965 20.5744 21.4238L22.0921 50.3841C22.1355 51.2113 21.5 51.9171 20.6727 51.9605V51.9605C19.8454 52.0039 19.1396 51.3684 19.0962 50.5411L17.5785 21.5808Z" fill="#181D46"/>
<rect x="21" y="5" width="14" height="6" fill="#3C4167"/>
</svg>
