<svg width="47" height="47" viewBox="0 0 47 47" fill="none" xmlns="http://www.w3.org/2000/svg">
<path d="M33.4692 8.84016C34.5552 7.75409 36.3576 8.73902 37.4485 9.82022V9.82022C38.5378 10.8998 39.515 12.6938 38.4306 13.7782L12.54 39.6688C11.3039 40.9049 9.54524 40.6063 8.27896 39.4011C8.20487 39.3306 8.12548 39.257 8.04017 39.1799C6.67635 37.9475 6.4702 35.8391 7.76997 34.5394L33.4692 8.84016Z" fill="#181D46"/>
<path d="M3.17707 44.082C2.8235 44.4356 7.66562 35.2193 7.77331 35.2432C7.88101 35.2671 12.0365 39.333 12.0161 39.486C11.9957 39.639 3.53064 43.7285 3.17707 44.082Z" stroke="#181D46"/>
<path d="M7.4197 37.718L6.25803 40.0919L5.50041 41.4556L5.14686 41.8091L5.09635 42.4657L4.7428 42.8193L4.38924 43.1728L6.1065 42.0617L6.81361 41.3546L7.21767 40.3444M7.21767 40.3444L6.51056 41.0515L5.85396 41.102L6.91462 40.0414L7.62173 39.3343M7.21767 40.3444L7.57122 39.9909L8.22782 39.9404L7.36919 38.3746M7.62173 39.3343L7.97528 38.9807L8.0763 37.6675L7.62173 39.3343ZM7.52072 40.6475L8.53087 40.2434C8.39618 40.5801 8.0662 41.1929 7.82376 40.9505C7.58133 40.7081 7.28501 40.8832 7.16716 41.001L7.47021 41.3041L8.88442 39.8899L9.2053 39.0877M9.2053 39.0877L9.28848 38.8797L9.54102 40.5465L9.2053 39.0877Z" stroke="#181D46"/>
<rect x="41.3608" y="0.948486" width="7" height="7" rx="3" transform="rotate(45 41.3608 0.948486)" fill="#181D46"/>
<path d="M38.8858 4.13071C38.7644 4.20674 37.2261 6.0418 37.4716 6.25203C37.7172 6.46226 39.2326 8.03999 39.2394 8.01979C39.2394 8.01979 40.6536 9.43401 41.0072 9.78756C41.3607 10.1411 43.1285 8.37335 43.1285 8.37335" stroke="#181D46"/>
</svg>
