<svg width="500" height="500" viewBox="0 0 500 500" fill="none" xmlns="http://www.w3.org/2000/svg">
<g clip-path="url(#clip0_201_2)">
<path d="M250 500C388.071 500 500 388.071 500 250C500 111.929 388.071 0 250 0C111.929 0 0 111.929 0 250C0 388.071 111.929 500 250 500Z" fill="#DF7452"/>
<path d="M374 375C443.036 375 499 319.036 499 250C499 180.964 443.036 125 374 125C304.964 125 249 180.964 249 250C249 319.036 304.964 375 374 375Z" fill="#181D46"/>
<path d="M435.5 312C470.018 312 498 284.018 498 249.5C498 214.982 470.018 187 435.5 187C400.982 187 373 214.982 373 249.5C373 284.018 400.982 312 435.5 312Z" fill="#DF7452"/>
<path d="M472 275C485.807 275 497 263.807 497 250C497 236.193 485.807 225 472 225C458.193 225 447 236.193 447 250C447 263.807 458.193 275 472 275Z" fill="white"/>
</g>
<defs>
<clipPath id="clip0_201_2">
<rect width="500" height="500" fill="white"/>
</clipPath>
</defs>
</svg>
