<svg width="60" height="60" viewBox="0 0 60 60" fill="none" xmlns="http://www.w3.org/2000/svg">
<circle cx="30" cy="30" r="30" fill="#DF7452"/>
<ellipse cx="30" cy="30" rx="10.777" ry="10.777" fill="#181D46"/>
<path d="M25.6891 35.5614C25.6891 35.5614 42.9323 31.2508 38.6215 32.3284C34.3107 33.4061 34.3107 46.3384 34.3107 46.3384H25.6891V35.5614Z" fill="#181D46"/>
<path d="M34.3108 35.5614C34.3108 35.5614 17.0677 31.2508 21.3784 32.3284C25.6892 33.4061 25.6892 46.3384 25.6892 46.3384H34.3108V35.5614Z" fill="#181D46"/>
<path d="M25.6891 45.0101C25.6891 44.4578 26.1369 44.0101 26.6891 44.0101H33.3107C33.863 44.0101 34.3107 44.4578 34.3107 45.0101V48.3986C34.3107 48.9509 33.863 49.3986 33.3107 49.3986H26.6891C26.1369 49.3986 25.6891 48.9509 25.6891 48.3986V45.0101Z" fill="#181D46"/>
<path d="M23.5339 42.9324H36.4662V45.0878H23.5339V42.9324Z" fill="#DF7452"/>
<rect x="28.3834" y="8.5" width="3.23309" height="6.78948" rx="1" fill="#181D46"/>
<path d="M16.1852 14.3389C15.7727 13.9717 15.1406 14.0084 14.7733 14.4209L13.9534 15.3418C13.5861 15.7543 13.6228 16.3864 14.0353 16.7537L17.6125 19.9385C18.0249 20.3057 18.657 20.2691 19.0243 19.8566L19.8442 18.9356C20.2115 18.5231 20.1748 17.891 19.7623 17.5238L16.1852 14.3389Z" fill="#181D46"/>
<path d="M43.9068 14.2571C44.3193 13.8898 44.9514 13.9265 45.3186 14.339L46.1386 15.26C46.5058 15.6725 46.4692 16.3046 46.0567 16.6718L42.4795 19.8566C42.067 20.2239 41.4349 20.1872 41.0677 19.7747L40.2477 18.8538C39.8805 18.4413 39.9171 17.8092 40.3296 17.4419L43.9068 14.2571Z" fill="#181D46"/>
<path d="M9.5 28.5764C8.94771 28.5764 8.5 29.0242 8.5 29.5764V30.8095C8.5 31.3618 8.94772 31.8095 9.5 31.8095H14.2895C14.8418 31.8095 15.2895 31.3618 15.2895 30.8095V29.5764C15.2895 29.0242 14.8418 28.5764 14.2895 28.5764H9.5Z" fill="#181D46"/>
<path d="M45.7106 28.5764C45.1583 28.5764 44.7106 29.0242 44.7106 29.5764V30.8095C44.7106 31.3618 45.1583 31.8095 45.7106 31.8095H50.5001C51.0523 31.8095 51.5001 31.3618 51.5001 30.8095V29.5764C51.5001 29.0242 51.0523 28.5764 50.5001 28.5764H45.7106Z" fill="#181D46"/>
<circle cx="30.0001" cy="30" r="5.6579" fill="#DF7452"/>
<path d="M33.3948 30C33.3948 31.8749 31.8749 33.3948 30 33.3948C28.1252 33.3948 26.6053 31.8749 26.6053 30C26.6053 28.1252 28.1252 26.6053 30 26.6053C31.8749 26.6053 33.3948 28.1252 33.3948 30Z" fill="#181D46"/>
<path d="M28.527 23.0166C28.5599 22.4896 28.997 22.079 29.525 22.079H30.4751C31.0031 22.079 31.4402 22.4896 31.4731 23.0166L31.631 25.5429C31.667 26.1186 31.2098 26.6053 30.633 26.6053H29.3671C28.7903 26.6053 28.3331 26.1186 28.3691 25.5429L28.527 23.0166Z" fill="#DF7452"/>
<path d="M28.527 36.9835C28.5599 37.5105 28.997 37.9211 29.525 37.9211H30.4751C31.0031 37.9211 31.4402 37.5105 31.4731 36.9835L31.631 34.4572C31.667 33.8815 31.2098 33.3948 30.633 33.3948H29.3671C28.7903 33.3948 28.3331 33.8815 28.3691 34.4572L28.527 36.9835Z" fill="#DF7452"/>
<path d="M36.9835 31.4731C37.5106 31.4402 37.9211 31.0031 37.9211 30.4751V29.525C37.9211 28.997 37.5106 28.5599 36.9835 28.527L34.4572 28.3691C33.8815 28.3331 33.3948 28.7903 33.3948 29.3671V30.633C33.3948 31.2098 33.8815 31.667 34.4572 31.631L36.9835 31.4731Z" fill="#DF7452"/>
<path d="M23.0166 31.4731C22.4896 31.4402 22.079 31.0031 22.079 30.4751V29.525C22.079 28.997 22.4896 28.5599 23.0166 28.527L25.5429 28.3691C26.1186 28.3331 26.6053 28.7903 26.6053 29.3671V30.633C26.6053 31.2098 26.1186 31.667 25.5429 31.631L23.0166 31.4731Z" fill="#DF7452"/>
<path d="M24.0329 26.0884C23.6835 25.6924 23.7022 25.0931 24.0756 24.7197L24.7474 24.0479C25.1208 23.6745 25.7202 23.6558 26.1162 24.0051L28.0142 25.6799C28.4467 26.0615 28.4675 26.7289 28.0597 27.1368L27.1646 28.0319C26.7567 28.4398 26.0893 28.4189 25.7076 27.9864L24.0329 26.0884Z" fill="#DF7452"/>
<path d="M33.8992 24.0052C34.2951 23.6558 34.8945 23.6745 35.2679 24.0479L35.9397 24.7197C36.3131 25.0931 36.3318 25.6924 35.9824 26.0884L34.3077 27.9864C33.926 28.419 33.2586 28.4398 32.8507 28.0319L31.9557 27.1368C31.5478 26.729 31.5686 26.0615 32.0011 25.6799L33.8992 24.0052Z" fill="#DF7452"/>
<path d="M33.8992 35.9813C34.2951 36.3306 34.8945 36.3119 35.2679 35.9385L35.9397 35.2667C36.3131 34.8933 36.3318 34.294 35.9824 33.898L34.3077 32C33.926 31.5675 33.2586 31.5466 32.8507 31.9545L31.9557 32.8496C31.5478 33.2575 31.5686 33.9249 32.0011 34.3065L33.8992 35.9813Z" fill="#DF7452"/>
<path d="M26.1092 35.9818C25.7132 36.3312 25.1139 36.3125 24.7405 35.9391L24.0687 35.2673C23.6953 34.8939 23.6766 34.2945 24.026 33.8986L25.7007 32.0005C26.0823 31.568 26.7498 31.5472 27.1576 31.955L28.0527 32.8501C28.4606 33.258 28.4397 33.9254 28.0072 34.3071L26.1092 35.9818Z" fill="#DF7452"/>
</svg>
