<svg width="60" height="61" viewBox="0 0 60 61" fill="none" xmlns="http://www.w3.org/2000/svg">
<ellipse cx="30" cy="30.5" rx="30" ry="30.5" fill="#DF7452"/>
<path d="M33.0657 24.8611C33.0657 26.5368 31.7073 27.8953 30.0315 27.8953C28.3558 27.8953 26.9973 26.5368 26.9973 24.8611C26.9973 23.1854 28.3558 21.8269 30.0315 21.8269C31.7073 21.8269 33.0657 23.1854 33.0657 24.8611Z" fill="#181D46"/>
<path d="M25.4449 32.9521C25.4449 30.4386 27.4826 28.4009 29.9962 28.4009V28.4009C32.5098 28.4009 34.5475 30.4386 34.5475 32.9521V37.9586C34.5475 40.4721 32.5098 42.5098 29.9962 42.5098V42.5098V42.5098C27.4826 42.5098 25.4449 40.4721 25.4449 37.9585V32.9521Z" fill="#181D46"/>
<path d="M43.0547 38.4719C42.9965 37.1304 41.8098 36.1216 40.4765 36.2802L30.3493 37.4843C28.9867 37.6463 28.0134 38.8823 28.1754 40.2449V40.2449C28.3414 41.6411 29.6318 42.6215 31.0214 42.4072L41.1007 40.8529C42.2638 40.6735 43.1057 39.6477 43.0547 38.4719V38.4719Z" fill="#181D46"/>
<path d="M42.9995 39.0875C43.1343 38.1826 42.5741 37.319 41.693 37.073V37.073C40.6072 36.7699 39.5108 37.52 39.3999 38.6418L38.3704 49.0542C38.284 49.9283 38.9377 50.7007 39.8141 50.7599V50.7599C40.6232 50.8146 41.3387 50.2387 41.4582 49.4366L42.9995 39.0875Z" fill="#181D46"/>
<path d="M16.9378 38.4719C16.996 37.1304 18.1826 36.1216 19.516 36.2802L29.6431 37.4843C31.0057 37.6463 31.9791 38.8823 31.817 40.2449V40.2449C31.651 41.6411 30.3606 42.6215 28.9711 42.4072L18.8917 40.8529C17.7286 40.6735 16.8867 39.6477 16.9378 38.4719V38.4719Z" fill="#181D46"/>
<path d="M16.993 39.0875C16.8582 38.1826 17.4183 37.319 18.2995 37.073V37.073C19.3853 36.7699 20.4816 37.52 20.5926 38.6418L21.622 49.0542C21.7085 49.9283 21.0548 50.7007 20.1784 50.7599V50.7599C19.3693 50.8146 18.6538 50.2387 18.5343 49.4366L16.993 39.0875Z" fill="#181D46"/>
<path d="M27.7705 31.3629C28.2781 30.5201 28.0064 29.4254 27.1636 28.9178L20.7911 25.0796C20.0944 24.66 19.1975 24.7978 18.6589 25.4071V25.4071C17.9734 26.1827 18.1426 27.387 19.0151 27.9438L25.2862 31.9455C26.1308 32.4844 27.2535 32.2211 27.7705 31.3629V31.3629Z" fill="#181D46"/>
<path d="M20.5499 27.7064C21.2545 27.2283 21.4381 26.2694 20.96 25.5648L16.7258 19.3252C16.2477 18.6205 15.2888 18.4369 14.5842 18.9151V18.9151C13.8795 19.3933 13.6959 20.3521 14.1741 21.0568L18.4082 27.2963C18.8864 28.001 19.8453 28.1846 20.5499 27.7064V27.7064Z" fill="#181D46"/>
<path d="M32.2402 31.3629C31.7326 30.5201 32.0043 29.4254 32.8471 28.9178L39.2196 25.0796C39.9163 24.66 40.8132 24.7978 41.3518 25.4071V25.4071C42.0372 26.1827 41.8681 27.387 40.9956 27.9438L34.7245 31.9455C33.8799 32.4844 32.7572 32.2211 32.2402 31.3629V31.3629Z" fill="#181D46"/>
<path d="M39.4609 27.7064C38.7563 27.2283 38.5727 26.2694 39.0508 25.5648L43.285 19.3252C43.7631 18.6205 44.722 18.4369 45.4266 18.9151V18.9151C46.1313 19.3933 46.3149 20.3521 45.8367 21.0568L41.6026 27.2963C41.1244 28.001 40.1656 28.1846 39.4609 27.7064V27.7064Z" fill="#181D46"/>
<path d="M7.25 20.0568C7.25 19.6378 7.58961 19.2982 8.00855 19.2982H52.0042C52.4231 19.2982 52.7627 19.6378 52.7627 20.0568V20.0568C52.7627 20.4757 52.4231 20.8153 52.0042 20.8153H8.00854C7.58961 20.8153 7.25 20.4757 7.25 20.0568V20.0568Z" fill="#181D46"/>
<path d="M9.77856 16.5171C9.77856 15.6792 10.4578 15 11.2957 15V15C12.1335 15 12.8127 15.6792 12.8127 16.5171V23.5968C12.8127 24.4347 12.1335 25.1139 11.2957 25.1139V25.1139C10.4578 25.1139 9.77856 24.4347 9.77856 23.5968V16.5171Z" fill="#181D46"/>
<path d="M47.2001 16.5171C47.2001 15.6792 47.8793 15 48.7172 15V15C49.555 15 50.2343 15.6792 50.2343 16.5171V23.5968C50.2343 24.4347 49.555 25.1139 48.7172 25.1139V25.1139C47.8793 25.1139 47.2001 24.4347 47.2001 23.5968V16.5171Z" fill="#181D46"/>
</svg>
