<svg width="59" height="59" viewBox="0 0 59 59" fill="none" xmlns="http://www.w3.org/2000/svg">
<circle cx="29.5" cy="29.5" r="29.5" fill="#DF7452"/>
<path d="M21.1972 21.6928C21.3329 20.5966 22.3316 19.818 23.4278 19.9537L26.4051 20.3222L29.3823 20.6908C30.4785 20.8265 31.2572 21.8251 31.1215 22.9213V22.9213C30.9858 24.0175 29.9871 24.7962 28.8909 24.6605L22.9364 23.9234C21.8402 23.7877 21.0615 22.789 21.1972 21.6928V21.6928V21.6928Z" fill="#DF7452"/>
<rect x="33.352" y="21.1822" width="10" height="4" rx="2" transform="rotate(7.0566 33.352 21.1822)" fill="#DF7452"/>
<path d="M21.1973 21.6928L20.9516 23.6777L30.0488 24.8038L30.2945 22.819M43.0306 24.3955L42.7849 26.3804M33.9334 23.2694L33.6877 25.2543L42.3301 26.3241" stroke="#DF7452"/>
<rect x="20.082" y="22.5624" width="1" height="1" transform="rotate(7.0566 20.082 22.5624)" fill="#DF7452"/>
<rect x="30.9986" y="23.9137" width="2" height="1" transform="rotate(7.0566 30.9986 23.9137)" fill="#DF7452"/>
<rect x="42.9077" y="25.3879" width="1" height="1" transform="rotate(7.0566 42.9077 25.3879)" fill="#DF7452"/>
<rect x="44.8926" y="25.6336" width="1" height="1" transform="rotate(7.0566 44.8926 25.6336)" fill="#DF7452"/>
<circle cx="33.5315" cy="15.6624" r="3.5" transform="rotate(7.0566 33.5315 15.6624)" fill="#181D46"/>
<path d="M20.1047 20.8845C20.1264 19.8845 20.9518 19.0898 21.9519 19.1061L31.0737 19.2546V19.2546C31.4033 19.2954 31.6487 19.5791 31.6414 19.9112L31.6168 21.0472C31.594 22.0991 30.7227 22.9334 29.6707 22.9106L21.8829 22.7416C20.879 22.7198 20.0829 21.8883 20.1047 20.8845V20.8845Z" fill="#181D46"/>
<path d="M23.4042 41.2054C22.3393 40.9121 21.7138 39.8111 22.0071 38.7461L24.4234 29.9731C24.7168 28.9082 25.8178 28.2827 26.8827 28.576L27.3965 28.7175C28.4614 29.0108 29.0869 30.1118 28.7936 31.1768L26.3772 39.9498C26.0839 41.0147 24.9829 41.6402 23.918 41.3469L23.4042 41.2054Z" fill="#181D46"/>
<path d="M38.3088 40.6937C37.5995 41.3401 36.531 41.3916 35.7628 40.8163L28.3741 35.283C27.4672 34.6038 27.305 33.3075 28.0168 32.4259L28.3113 32.061C29.0027 31.2046 30.256 31.0678 31.1159 31.7548L38.3448 37.5302C39.3056 38.2978 39.3525 39.7426 38.4435 40.571L38.3088 40.6937Z" fill="#181D46"/>
<path d="M27.0651 45.8259C26.3516 44.8004 26.6045 43.3906 27.63 42.677L35.131 37.458C35.9562 36.8839 37.0625 36.9284 37.8389 37.5669V37.5669C38.9854 38.5098 38.9174 40.286 37.7021 41.1384L30.221 46.3859C29.1955 47.1053 27.7806 46.8542 27.0651 45.8259V45.8259Z" fill="#181D46"/>
<path d="M16.1208 47.5073C15.2157 46.62 15.2014 45.167 16.0887 44.262L22.2646 37.9625C23.0708 37.1402 24.3467 37.0046 25.3078 37.639V37.639C26.5909 38.4861 26.761 40.3029 25.6574 41.3734L19.3252 47.5158C18.4316 48.3827 17.0098 48.3789 16.1208 47.5073V47.5073Z" fill="#181D46"/>
<path d="M32.7861 20.5043C33.651 20.0726 34.7022 20.3655 35.2194 21.1821L39.7592 28.3512C40.1484 28.9658 40.0077 29.7754 39.434 30.2227V30.2227V30.2227C38.0046 31.2396 36.0065 30.7629 35.1901 29.2102L31.9599 23.067C31.4683 22.1322 31.8411 20.976 32.7861 20.5043V20.5043Z" fill="#181D46"/>
<path d="M36.5438 29.929C35.9993 29.0918 36.2547 27.9702 37.1079 27.4512L40.9168 25.1345C41.7665 24.6176 42.8743 24.8875 43.3912 25.7372V25.7372C43.913 26.5951 43.6323 27.7141 42.7674 28.2241L38.9273 30.4888C38.111 30.9701 37.0604 30.7234 36.5438 29.929V29.929Z" fill="#181D46"/>
<path d="M34.1435 21.3425C35.2053 21.647 35.8191 22.7546 35.5146 23.8164L32.6165 33.9202C32.3084 34.9941 31.1804 35.6074 30.1116 35.2821L25.3877 33.8443C24.3516 33.529 23.7547 32.4461 24.0414 31.4017L26.8024 21.3413C27.0971 20.2675 28.2121 19.6411 29.2825 19.9482L34.1435 21.3425Z" fill="#181D46"/>
<path d="M21.3583 30.3656C20.3581 30.3074 19.5952 29.448 19.656 28.448L20.0784 21.5038C20.1408 20.4776 21.0477 19.7116 22.0698 19.8218V19.8218C23.0249 19.9247 23.7313 20.7588 23.6755 21.7178L23.2712 28.6631C23.2131 29.6615 22.3567 30.4237 21.3583 30.3656V30.3656Z" fill="#181D46"/>
<rect x="30.5156" y="19.131" width="2.64663" height="6.33276" rx="1.32331" transform="rotate(25.7076 30.5156 19.131)" fill="#181D46"/>
<path d="M28.3477 22.8027C28.0278 20.6618 30.0115 18.8971 32.1006 19.4641L33.8556 19.9405V19.9405C35.5099 20.5291 35.8129 22.7383 34.3781 23.7505L32.1909 25.2935C31.4885 25.789 30.5727 25.8651 29.7981 25.4922V25.4922C29.0913 25.1519 28.5989 24.4839 28.483 23.7081L28.3477 22.8027Z" fill="#181D46"/>
</svg>
