<svg width="60" height="61" viewBox="0 0 60 61" fill="none" xmlns="http://www.w3.org/2000/svg">
<ellipse cx="30" cy="30.5" rx="30" ry="30.5" fill="#DF7452"/>
<path d="M26.3771 20.0469C26.3771 21.6067 25.1126 22.8711 23.5529 22.8711C21.9932 22.8711 20.7288 21.6067 20.7288 20.0469C20.7288 18.4872 21.9932 17.2228 23.5529 17.2228C25.1126 17.2228 26.3771 18.4872 26.3771 20.0469Z" fill="#181D46"/>
<path d="M26.8384 26.2893C25.3295 24.7555 25.5599 22.2337 27.3217 20.9987V20.9987C28.8968 19.8946 31.0689 20.2775 32.1714 21.8538L35.9072 27.1947C37.0991 28.8987 36.663 31.2488 34.9392 32.4118V32.4118V32.4118C34.117 32.833 33.1165 32.6714 32.4687 32.0129L26.8384 26.2893Z" fill="#181D46"/>
<path d="M41.5329 43.1338C42.7323 42.608 43.2272 41.1702 42.6055 40.0177L37.2974 30.1757C36.6631 28.9997 35.1956 28.5606 34.0197 29.1948V29.1948C32.8171 29.8434 32.3899 31.3585 33.0765 32.5398L38.6958 42.2075C39.2684 43.1927 40.4893 43.5913 41.5329 43.1338V43.1338Z" fill="#181D46"/>
<path d="M42.7893 41.0244C42.6761 40.0408 41.8844 39.2739 40.8977 39.1921V39.1921C39.4995 39.0762 38.391 40.3513 38.7003 41.7198L40.8183 51.0887C41.0065 51.9216 41.8298 52.448 42.6648 52.2695V52.2695C43.4502 52.1016 43.9794 51.3646 43.8876 50.5667L42.7893 41.0244Z" fill="#181D46"/>
<path d="M28.134 43C27.048 42.5142 26.5136 41.2787 26.9032 40.1546L30.3436 30.226C30.8572 28.7439 32.5288 28.0184 33.9622 28.6555V28.6555C35.3029 29.2513 35.9147 30.8149 35.3344 32.1624L31.1782 41.8133C30.672 42.9886 29.3022 43.5226 28.134 43V43Z" fill="#181D46"/>
<path d="M26.3022 40.9759C26.6924 40.2527 27.4537 39.8078 28.2753 39.8226V39.8226C30.0393 39.8545 31.0479 41.8478 30.0288 43.288L24.0565 51.7282C23.5699 52.4159 22.6273 52.5971 21.9204 52.1389V52.1389C21.2336 51.6937 21.0039 50.7957 21.3925 50.0754L26.3022 40.9759Z" fill="#181D46"/>
<path d="M25.778 22.9525C25.0268 22.9525 24.3599 23.4332 24.1223 24.1458L22.6121 28.6766C22.2432 29.7834 23.6178 30.6329 24.4427 29.8079V29.8079C24.4942 29.7565 24.5404 29.7 24.5808 29.6395L27.23 25.6658C28.0032 24.506 27.1718 22.9526 25.778 22.9525V22.9525Z" fill="#181D46"/>
<path d="M31.6648 32.6847C31.6648 32.4176 31.5125 32.174 31.2723 32.0572L24.0563 28.5463C23.4766 28.2643 22.778 28.5039 22.4934 29.0824V29.0824C22.183 29.7134 22.4949 30.4738 23.159 30.705L30.7376 33.3437C31.1911 33.5016 31.6648 33.1649 31.6648 32.6847V32.6847Z" fill="#181D46"/>
<path d="M31.6505 24.2726C30.8396 24.7866 29.7642 24.5279 29.2758 23.7013L23.9363 14.6652C23.4456 13.8348 24.0442 12.7857 25.0088 12.7856V12.7856C25.4111 12.7856 25.7886 12.9799 26.0225 13.3072L32.124 21.8473C32.6916 22.6418 32.4752 23.75 31.6505 24.2726V24.2726Z" fill="#181D46"/>
<path d="M25.743 14.4825C25.3617 14.899 24.7374 14.9841 24.2585 14.6848L16.9052 10.089C16.4665 9.81483 16.3969 9.20379 16.7628 8.83797V8.83797C17.0098 8.59093 17.388 8.53158 17.6989 8.69107L25.4138 12.6497C26.1013 13.0025 26.2648 13.9126 25.743 14.4825V14.4825Z" fill="#181D46"/>
<path d="M27.7588 20.279C28.6481 19.3897 30.1686 20.0195 30.1687 21.2772V21.2772C30.1687 21.6284 30.0378 21.967 29.8015 22.2268L27.1402 25.1542C26.2144 26.1726 24.5202 25.5176 24.5202 24.1413V24.1413C24.5202 23.7419 24.6789 23.3589 24.9613 23.0765L27.7588 20.279Z" fill="#181D46"/>
</svg>
