<svg width="60" height="61" viewBox="0 0 60 61" fill="none" xmlns="http://www.w3.org/2000/svg">
<ellipse cx="30" cy="30.5" rx="30" ry="30.5" fill="#DF7452"/>
<path d="M39.4733 26.9185C39.4733 28.8582 37.9266 30.4306 36.0188 30.4306C34.1109 30.4306 32.5642 28.8582 32.5642 26.9185C32.5642 24.9788 34.1109 23.4064 36.0188 23.4064C37.9266 23.4064 39.4733 24.9788 39.4733 26.9185Z" fill="#181D46"/>
<rect width="4.3537" height="20.1902" rx="2.17685" transform="matrix(0.707316 -0.706898 0.695113 0.718901 20.5 23.4109)" fill="#181D46"/>
<rect width="3.86394" height="12.694" rx="1.93197" transform="matrix(-0.702051 -0.712126 0.700426 -0.713725 17.3231 32.1449)" fill="#181D46"/>
<rect width="8.87013" height="7.10558" transform="matrix(-0.702051 -0.712126 0.700426 -0.713725 28.1485 38.8488)" fill="#181D46"/>
<path d="M30 35.1848C34.5797 35.2499 35.9955 33.0867 39.1346 32.6611C42.2737 32.2354 44.6818 34.8209 49 35.1851" stroke="#DF7452" stroke-width="3" stroke-linecap="round"/>
<path d="M30 35.1848C25.4203 35.2498 24.0045 33.0867 20.8654 32.661C17.7263 32.2353 14.8864 34.3818 11 35.1851" stroke="#DF7452" stroke-width="3" stroke-linecap="round"/>
<rect x="25.6818" y="37.0159" width="4.31818" height="2.63409" fill="#DF7452"/>
<path d="M30 36.941C34.5797 37.006 35.9955 34.8428 39.1346 34.4172C42.2737 33.9915 44.6818 36.577 49 36.9412" stroke="#181D46" stroke-width="3" stroke-linecap="round"/>
<path d="M30 36.9409C25.4203 37.0059 24.0045 34.8428 20.8654 34.4171C17.7263 33.9915 14.8864 36.1379 11 36.9412" stroke="#181D46" stroke-width="3" stroke-linecap="round"/>
</svg>
