<svg width="60" height="60" viewBox="0 0 60 60" fill="none" xmlns="http://www.w3.org/2000/svg">
<circle cx="30" cy="30" r="30" fill="#DF7452"/>
<path d="M20.0578 18.8947C20.1984 17.759 21.233 16.9523 22.3687 17.0929L25.4531 17.4747L28.5375 17.8565C29.6732 17.9971 30.4799 19.0317 30.3393 20.1674V20.1674C30.1987 21.303 29.1641 22.1097 28.0284 21.9691L21.8596 21.2055C20.7239 21.0649 19.9173 20.0303 20.0578 18.8947V18.8947V18.8947Z" fill="#DF7452"/>
<path d="M20.0579 18.8948L19.8033 20.9511L29.228 22.1177L29.4825 20.0614M42.677 21.6947L42.4225 23.751M33.2524 20.5281L32.9978 22.5844L41.9513 23.6927" stroke="#DF7452"/>
<rect x="18.9025" y="19.7954" width="1.03599" height="1.03599" transform="rotate(7.0566 18.9025 19.7954)" fill="#DF7452"/>
<rect x="30.212" y="21.1954" width="2.07198" height="1.03599" transform="rotate(7.0566 30.212 21.1954)" fill="#DF7452"/>
<rect x="42.5497" y="22.7227" width="1.03599" height="1.03599" transform="rotate(7.0566 42.5497 22.7227)" fill="#DF7452"/>
<rect x="44.6061" y="22.9773" width="1.03599" height="1.03599" transform="rotate(7.0566 44.6061 22.9773)" fill="#DF7452"/>
<circle cx="30.7677" cy="13.1943" r="3.2837" transform="rotate(7.0566 30.7677 13.1943)" fill="#181D46"/>
<path d="M18.9457 25.2084C18.1358 24.5495 18.1621 23.3045 18.9991 22.6804L26.4286 17.1409V17.1409C26.7248 16.9658 27.1056 17.0433 27.3098 17.3203L27.9768 18.2251C28.6297 19.1107 28.4037 20.3631 27.4825 20.9648L20.8333 25.307C20.2497 25.6882 19.4865 25.6483 18.9457 25.2084V25.2084Z" fill="#181D46"/>
<path d="M23.7744 39.549C22.3766 39.549 21.4099 38.1516 21.9029 36.8436L24.6639 29.5175C24.8954 28.9033 25.4135 28.4417 26.0503 28.2825L27.444 27.9341C29.0289 27.5379 30.3945 29.106 29.7844 30.6214L26.6942 38.296C26.3894 39.053 25.6551 39.5489 24.839 39.549L23.7744 39.549Z" fill="#181D46"/>
<path d="M35.4929 39.7456C34.5521 40.6297 33.0326 40.404 32.3893 39.2847L28.2108 32.0141C27.6197 30.9856 28.0486 29.6717 29.1326 29.1899L30.021 28.795C30.9981 28.3608 32.144 28.7718 32.6221 29.7282L36.2814 37.0467C36.6766 37.8372 36.5062 38.7934 35.8621 39.3986L35.4929 39.7456Z" fill="#181D46"/>
<path d="M36.695 48.3323C35.6798 48.5589 34.6674 47.941 34.4048 46.9344L32.2546 38.6921C31.9778 37.6309 32.5476 36.532 33.5746 36.1469V36.1469C34.8033 35.6862 36.1536 36.4291 36.4221 37.7136L38.1652 46.0514C38.3815 47.0858 37.7264 48.1021 36.695 48.3323V48.3323Z" fill="#181D46"/>
<path d="M17.5463 47.802C16.7797 47.142 16.5861 46.0324 17.0838 45.1518L21.9759 36.4966C22.5523 35.4767 23.7581 34.9917 24.8802 35.3283V35.3283C26.4991 35.814 27.184 37.7292 26.2402 39.1314L20.6887 47.3791C19.9794 48.4329 18.509 48.6308 17.5463 47.802V47.802Z" fill="#181D46"/>
<path d="M31.6377 18.3412C32.5407 17.6974 33.8019 17.9706 34.3576 18.9304L38.751 26.519C38.9257 26.8207 39.0032 27.169 38.973 27.5163V27.5163C38.9186 28.1426 38.5223 28.6876 37.9433 28.9324L37.8757 28.961C37.0449 29.3124 36.0821 29.0018 35.6132 28.2312L31.1226 20.8507C30.6102 20.0085 30.8349 18.9135 31.6377 18.3412V18.3412Z" fill="#181D46"/>
<path d="M36.1577 26.8562C36.5941 25.8968 37.7676 25.5296 38.673 26.0693L42.8805 28.5774C43.3651 28.8662 43.6273 29.419 43.5444 29.9769V29.9769C43.4121 30.8674 42.4818 31.3996 41.6471 31.0625L37.1052 29.2281C36.172 28.8512 35.741 27.7724 36.1577 26.8562V26.8562Z" fill="#181D46"/>
<path d="M32.6148 17.4269C33.7135 17.541 34.5116 18.5241 34.3976 19.6227L33.2222 30.9433C33.1158 31.9683 32.248 32.7446 31.2175 32.7367L26.1917 32.6978C25.0141 32.6887 24.0993 31.6693 24.2172 30.4976L25.4047 18.6954C25.5156 17.594 26.5001 16.792 27.6012 16.9064L32.6148 17.4269Z" fill="#181D46"/>
<path d="M19.9437 30.8668C18.9376 31.1414 17.9596 30.3459 18.0235 29.3049L18.338 24.179C18.4001 23.1678 19.294 22.4132 20.3013 22.5217V22.5217C21.3132 22.6308 22.0268 23.5662 21.8645 24.571L21.0458 29.6408C20.9506 30.2302 20.5197 30.7096 19.9437 30.8668V30.8668Z" fill="#181D46"/>
</svg>
