<svg width="60" height="60" viewBox="0 0 60 60" fill="none" xmlns="http://www.w3.org/2000/svg">
<circle cx="30" cy="30" r="30" fill="#3C4167"/>
<path d="M10 25.5C10 24.9477 10.4477 24.5 11 24.5V24.5V24.5C11.5523 24.5 12 24.9477 12 25.5V40C12 40.5523 11.5523 41 11 41V41C10.4477 41 10 40.5523 10 40V25.5Z" fill="#181D46"/>
<path d="M8 26.25C8 25.2835 8.7835 24.5 9.75 24.5H12.25C13.2165 24.5 14 25.2835 14 26.25V26.25C14 27.2165 13.2165 28 12.25 28H11H9.75C8.7835 28 8 27.2165 8 26.25V26.25Z" fill="#181D46"/>
<path d="M50 31.9167C50 31.3645 49.5523 30.9167 49 30.9167V30.9167C48.4477 30.9167 48 31.3645 48 31.9167V40.0001C48 40.5524 48.4477 41.0001 49 41.0001V41.0001C49.5523 41.0001 50 40.5524 50 40.0001V31.9167Z" fill="#181D46"/>
<path d="M50 23.8971V22.6077C50 21.8261 49.7227 21.034 49.5348 20.2752C49.2638 19.1804 49.106 18.0936 47.7209 20.2017C46.1309 22.6215 45.7252 25.4036 46.1674 29.6938C46.2979 30.9597 48.3723 32.675 49.633 32.5015V32.5015C50.0045 32.4504 50 32.1007 50 31.7257V23.8971Z" fill="#181D46"/>
<circle cx="30" cy="30" r="13" fill="#181D46"/>
<path d="M8 19.75C8 19.3358 8.33579 19 8.75 19V19C9.16421 19 9.5 19.3358 9.5 19.75V25.75C9.5 26.1642 9.16421 26.5 8.75 26.5V26.5C8.33579 26.5 8 26.1642 8 25.75V19.75Z" fill="#181D46"/>
<path d="M10.25 19.75C10.25 19.3358 10.5858 19 11 19V19C11.4142 19 11.75 19.3358 11.75 19.75V25.25C11.75 25.6642 11.4142 26 11 26V26C10.5858 26 10.25 25.6642 10.25 25.25V19.75Z" fill="#181D46"/>
<path d="M12.5 19.75C12.5 19.3358 12.8358 19 13.25 19V19C13.6642 19 14 19.3358 14 19.75V25.75C14 26.1642 13.6642 26.5 13.25 26.5V26.5V26.5C12.8358 26.5 12.5 26.1642 12.5 25.75V19.75Z" fill="#181D46"/>
<circle cx="30" cy="30" r="10" fill="#3C4167"/>
<circle cx="30" cy="30" r="8" fill="#181D46"/>
<path d="M13 24.5H14V26.2422H13V24.5Z" fill="#181D46"/>
<path d="M8 24.5H9V26.2422H8V24.5Z" fill="#181D46"/>
</svg>
