<svg width="61" height="61" viewBox="0 0 61 61" fill="none" xmlns="http://www.w3.org/2000/svg">
<ellipse cx="30.0222" cy="30.5" rx="30" ry="30.5" fill="#3C4167"/>
<rect x="16.5829" y="22.105" width="7.20932" height="13.5175" rx="3.60466" fill="#181D46"/>
<path d="M16.8159 31.8622C17.2015 30.4775 18.877 29.9378 19.9984 30.8371V30.8371C20.638 31.3501 20.9004 32.2012 20.6606 32.9853L18.9923 38.4399C18.6804 39.4596 17.6008 40.0335 16.581 39.7216V39.7216C15.5794 39.4152 15.0047 38.3661 15.2857 37.3571L16.8159 31.8622Z" fill="#181D46"/>
<path d="M20.0432 32.7561C20.0347 32.2829 20.2128 31.8254 20.5389 31.4824V31.4824C21.6992 30.2618 23.7507 31.1587 23.6427 32.8394L23.2156 39.4849C23.161 40.3347 22.4224 40.9759 21.5734 40.9106V40.9106C20.7877 40.8502 20.1768 40.2022 20.1627 39.4143L20.0432 32.7561Z" fill="#181D46"/>
<path d="M16.9066 36.1318C18.0164 36.3336 18.6587 37.5062 18.2311 38.5501V38.5501C17.8889 39.3855 16.9739 39.8308 16.1053 39.5846L7.80041 37.2305C7.256 37.0762 6.86431 36.6005 6.81732 36.0366V36.0366C6.7431 35.146 7.53448 34.4276 8.41378 34.5875L16.9066 36.1318Z" fill="#181D46"/>
<path d="M20.2262 39.7166C20.201 39.3983 20.2769 39.0802 20.4429 38.8075V38.8075C21.2473 37.486 23.2816 38.0729 23.2585 39.6197L23.1466 47.1141C23.1332 48.0134 22.1504 48.5602 21.3792 48.0974V48.0974C21.0556 47.9033 20.8459 47.5647 20.8162 47.1885L20.2262 39.7166Z" fill="#181D46"/>
<path d="M22.891 18.9507C22.891 20.4438 21.6806 21.6542 20.1875 21.6542C18.6944 21.6542 17.484 20.4438 17.484 18.9507C17.484 17.4576 18.6944 16.2472 20.1875 16.2472C21.6806 16.2472 22.891 17.4576 22.891 18.9507Z" fill="#181D46"/>
<path d="M20.9235 24.0285C20.8448 23.4774 21.0738 22.9273 21.5205 22.595L26.1914 19.1195C26.5233 18.8726 26.9549 18.8034 27.3473 18.9342V18.9342C28.2711 19.2421 28.5158 20.4343 27.788 21.0812L23.4365 24.9491C22.5313 25.7536 21.0948 25.2273 20.9235 24.0285V24.0285Z" fill="#181D46"/>
<path d="M19.4876 24.5043C19.4196 24.7126 19.2952 24.8981 19.1281 25.0399L14.3981 29.0551C14.105 29.3038 13.7088 29.3934 13.3373 29.2948V29.2948C12.4229 29.0521 12.1565 27.8828 12.8756 27.268L17.5914 23.2361C18.5012 22.4583 19.859 23.3664 19.4876 24.5043V24.5043Z" fill="#181D46"/>
<path d="M29.2013 14.256C29.4646 13.8379 29.9794 13.6537 30.4482 13.8099V13.8099C31.0863 14.0227 31.3734 14.7635 31.0453 15.3507L28.3438 20.185C27.9057 20.969 26.7986 21.025 26.2836 20.2893V20.2893C26.0025 19.8878 25.9896 19.357 26.2507 18.9423L29.2013 14.256Z" fill="#181D46"/>
<path d="M11.091 31.6766C10.8264 31.89 10.4736 31.9592 10.148 31.8615V31.8615C9.38312 31.632 9.15867 30.6573 9.74617 30.1164L13.2187 26.9194C13.8241 26.362 14.7993 26.5762 15.1153 27.336V27.336C15.3175 27.822 15.1749 28.3831 14.7652 28.7135L11.091 31.6766Z" fill="#181D46"/>
<rect width="7.20932" height="13.5175" rx="3.60466" transform="matrix(-1 0 0 1 44.5189 21.6547)" fill="#181D46"/>
<path d="M44.4522 32.2192C44.138 31.2393 43.0947 30.6938 42.1106 30.9948V30.9948C41.089 31.3072 40.5323 32.4068 40.8852 33.4152L42.8052 38.9009C43.131 39.8317 44.1437 40.3286 45.0793 40.0168V40.0168C46.0172 39.7041 46.529 38.695 46.2271 37.7536L44.4522 32.2192Z" fill="#181D46"/>
<path d="M41.304 32.3714C41.3437 31.9938 41.2714 31.6129 41.0959 31.2762V31.2762C40.1765 29.5116 37.512 30.1208 37.4508 32.1097L37.2595 38.3271C37.2332 39.179 37.8413 39.919 38.6822 40.0583V40.0583C39.6486 40.2185 40.5503 39.5318 40.6528 38.5576L41.304 32.3714Z" fill="#181D46"/>
<path d="M44.5143 36.8262C43.4255 36.7592 42.5669 37.739 42.7762 38.8096V38.8096C42.9385 39.6398 43.6969 40.2168 44.5403 40.1517L52.8046 39.5137C53.5229 39.4583 53.9916 38.7347 53.7485 38.0565V38.0565C53.6013 37.6455 53.2233 37.3617 52.7876 37.3349L44.5143 36.8262Z" fill="#181D46"/>
<path d="M40.1106 37.9093C40.03 37.7687 39.9263 37.6428 39.8038 37.5368V37.5368C38.5436 36.4457 36.7459 38.0107 37.6531 39.4092L42.5897 47.0199C42.8094 47.3585 43.1856 47.5629 43.5892 47.5629V47.5629C44.5047 47.5629 45.078 46.5733 44.6227 45.7791L40.1106 37.9093Z" fill="#181D46"/>
<path d="M38.6613 18.5007C38.6613 19.9938 39.8717 21.2042 41.3648 21.2042C42.8579 21.2042 44.0683 19.9938 44.0683 18.5007C44.0683 17.0076 42.8579 15.7972 41.3648 15.7972C39.8717 15.7972 38.6613 17.0076 38.6613 18.5007Z" fill="#181D46"/>
<path d="M40.4134 23.7041C40.4717 23.2646 40.3514 22.82 40.0793 22.4699L36.5341 17.9078C36.2717 17.5702 35.8607 17.3824 35.4338 17.4051V17.4051C34.4515 17.4573 33.8775 18.5357 34.3827 19.3797L37.3504 24.3369C38.156 25.6827 40.207 25.259 40.4134 23.7041V23.7041Z" fill="#181D46"/>
<path d="M40.9928 24.2753C41.0895 24.4779 41.2312 24.6557 41.4071 24.7952L47.2135 29.4004C47.5032 29.6302 47.8833 29.7123 48.2421 29.6226V29.6226C49.1598 29.3932 49.4563 28.2368 48.7622 27.5941L43.3244 22.5589C42.1324 21.4552 40.293 22.8092 40.9928 24.2753V24.2753Z" fill="#181D46"/>
<path d="M35.6382 11.9896C35.563 11.4808 35.1263 11.1039 34.6119 11.1039V11.1039C34.0005 11.1039 33.5217 11.6299 33.579 12.2386L34.157 18.3767C34.2495 19.3589 35.4218 19.8164 36.1551 19.1564V19.1564C36.4541 18.8873 36.5984 18.4865 36.5396 18.0886L35.6382 11.9896Z" fill="#181D46"/>
<path d="M48.287 33.7523C48.3793 34.0812 48.6279 34.3434 48.9514 34.4531V34.4531C49.709 34.71 50.4593 34.0475 50.2982 33.2639L49.2914 28.3684C49.0823 27.3514 47.7751 27.0504 47.1423 27.8736V27.8736C46.9092 28.1768 46.8328 28.5722 46.9362 28.9404L48.287 33.7523Z" fill="#181D46"/>
</svg>
