<svg width="36" height="37" viewBox="0 0 36 37" fill="none" xmlns="http://www.w3.org/2000/svg">
<path d="M27.5 27.9978C27.5 32.9696 23.1792 37 17.8492 37C12.5192 37 8.5 32.9739 8.5 28.0022C8.5 23.0304 12.8208 19 18.1508 19C23.4808 19 27.5 23.0261 27.5 27.9978Z" fill="#3C4167"/>
<path d="M8.5 15H27.6V24.1689C20.5463 25.2965 16.3965 25.2574 8.7 24.1689L8.5 15Z" fill="#181D46"/>
<path d="M7.5 13H28.5L27.6 22.1689C20.5463 23.2965 16.3965 23.2574 8.7 22.1689L7.5 13Z" fill="#3C4167"/>
<path d="M16.5 10.0111C16.5 12.8226 13.3702 16 10.2144 16C7.05851 16 4.50015 12.8312 4.50015 10.0197C4.47551 6.97069 7.58975 3.64418 10.7858 4.03078C13.9416 4.03078 16.5 7.19962 16.5 10.0111Z" fill="#3C4167"/>
<path d="M19.5 10.0111C19.5 12.8226 22.6298 16 25.7856 16C28.9415 16 31.4999 12.8312 31.4999 10.0197C31.5245 6.97069 28.4103 3.64418 25.2142 4.03078C22.0584 4.03078 19.5 7.19962 19.5 10.0111Z" fill="#3C4167"/>
<path d="M24.5 7.49743C24.5 11.6522 21.3953 15 17.22 15C13.0447 15 10.5 11.6573 10.5 7.50257C10.5 3.34781 13.6047 0 17.78 0C21.9553 0 24.5 3.34267 24.5 7.49743Z" fill="#3C4167"/>
<path d="M2.5 25C2.5 24.4477 2.94772 24 3.5 24V24V24C4.05228 24 4.5 24.4477 4.5 25V36C4.5 36.5523 4.05228 37 3.5 37V37C2.94772 37 2.5 36.5523 2.5 36V25Z" fill="#3C4167"/>
<path d="M0.5 19C0.5 17.3431 1.84315 16 3.5 16V16C5.15685 16 6.5 17.3431 6.5 19V22C6.5 23.6569 5.15685 25 3.5 25V25V25C1.84315 25 0.5 23.6569 0.5 22V19Z" fill="#3C4167"/>
<rect x="31.5" y="27" width="2" height="10" rx="1" fill="#3C4167"/>
<path d="M31.5 19.8325V17.9449C31.5 17.2999 31.624 16.5992 32.0917 16.155C32.5045 15.7629 32.9836 15.9902 34.1469 18.3072C35.539 21.0801 35.7313 22.4475 35.2873 26.6944C35.1624 27.8885 32.8299 30.1423 31.7221 29.6794V29.6794C31.479 29.5778 31.5 29.3512 31.5 29.0877V19.8325Z" fill="#3C4167"/>
</svg>
