<svg width="42" height="26" viewBox="0 0 42 26" fill="none" xmlns="http://www.w3.org/2000/svg">
<path d="M2 8.5C2 7.94772 2.44772 7.5 3 7.5V7.5V7.5C3.55228 7.5 4 7.94772 4 8.5V23C4 23.5523 3.55228 24 3 24V24C2.44772 24 2 23.5523 2 23V8.5Z" fill="#3C4167"/>
<path d="M0 9.25C0 8.2835 0.783502 7.5 1.75 7.5H4.25C5.2165 7.5 6 8.2835 6 9.25V9.25C6 10.2165 5.2165 11 4.25 11H3H1.75C0.783502 11 0 10.2165 0 9.25V9.25Z" fill="#3C4167"/>
<path d="M42 14.9167C42 14.3645 41.5523 13.9167 41 13.9167V13.9167C40.4477 13.9167 40 14.3645 40 14.9167V23.0001C40 23.5524 40.4477 24.0001 41 24.0001V24.0001C41.5523 24.0001 42 23.5524 42 23.0001V14.9167Z" fill="#3C4167"/>
<path d="M42 6.89711V5.60771C42 4.82605 41.7227 4.03399 41.5348 3.27524C41.2638 2.18041 41.106 1.0936 39.7209 3.2017C38.1309 5.62145 37.7252 8.40358 38.1674 12.6938C38.2979 13.9597 40.3723 15.675 41.633 15.5015V15.5015C42.0045 15.4504 42 15.1007 42 14.7257V6.89711Z" fill="#3C4167"/>
<circle cx="22" cy="13" r="13" fill="#3C4167"/>
<path d="M0 2.75C0 2.33579 0.335786 2 0.75 2V2C1.16421 2 1.5 2.33579 1.5 2.75V8.75C1.5 9.16421 1.16421 9.5 0.75 9.5V9.5C0.335786 9.5 0 9.16421 0 8.75V2.75Z" fill="#3C4167"/>
<path d="M2.25 2.75C2.25 2.33579 2.58579 2 3 2V2C3.41421 2 3.75 2.33579 3.75 2.75V8.25003C3.75 8.66425 3.41421 9.00003 3 9.00003V9.00003C2.58579 9.00003 2.25 8.66425 2.25 8.25003V2.75Z" fill="#3C4167"/>
<path d="M4.5 2.75C4.5 2.33579 4.83579 2 5.25 2V2C5.66421 2 6 2.33579 6 2.75V8.75C6 9.16421 5.66421 9.5 5.25 9.5V9.5V9.5C4.83579 9.5 4.5 9.16421 4.5 8.75V2.75Z" fill="#3C4167"/>
<circle cx="22" cy="13" r="10" fill="#181D46"/>
<circle cx="22" cy="13" r="8" fill="#3C4167"/>
<path d="M5 7.5H6V9.24219H5V7.5Z" fill="#3C4167"/>
<path d="M0 7.5H1V9.24219H0V7.5Z" fill="#3C4167"/>
</svg>
