<svg width="45" height="41" viewBox="0 0 45 41" fill="none" xmlns="http://www.w3.org/2000/svg">
<path d="M21.2269 2.82407C21.2269 4.38376 19.9625 5.64814 18.4028 5.64814C16.8431 5.64814 15.5787 4.38376 15.5787 2.82407C15.5787 1.26438 16.8431 0 18.4028 0C19.9625 0 21.2269 1.26438 21.2269 2.82407Z" fill="#3C4167"/>
<path d="M31.1111 5.64818C31.1111 7.0779 29.9521 8.23691 28.5224 8.23691C27.0927 8.23691 25.9337 7.0779 25.9337 5.64818C25.9337 4.21846 27.0927 3.05945 28.5224 3.05945C29.9521 3.05945 31.1111 4.21846 31.1111 5.64818Z" fill="#3C4167"/>
<path d="M40.054 16.0031C40.054 17.1728 39.1057 18.1211 37.936 18.1211C36.7662 18.1211 35.8179 17.1728 35.8179 16.0031C35.8179 14.8333 36.7662 13.885 37.936 13.885C39.1057 13.885 40.054 14.8333 40.054 16.0031Z" fill="#3C4167"/>
<path d="M8.98921 19.7685C8.98921 20.8082 8.14629 21.6512 7.1065 21.6512C6.0667 21.6512 5.22379 20.8082 5.22379 19.7685C5.22379 18.7287 6.0667 17.8857 7.1065 17.8857C8.14629 17.8857 8.98921 18.7287 8.98921 19.7685Z" fill="#3C4167"/>
<path d="M14.2895 10.3932C14.2244 7.87876 16.3858 5.88076 18.8874 6.14292V6.14292C21.0644 6.37107 22.6934 8.24538 22.6158 10.4329L22.2298 21.3245C22.1907 22.4269 21.6668 23.4557 20.7983 24.1356V24.1356C19.3159 25.2959 17.2019 25.1729 15.8642 23.8484L15.7332 23.7187C15.0096 23.0023 14.5909 22.0339 14.5646 21.016L14.2895 10.3932Z" fill="#3C4167"/>
<path d="M13.3193 8.73284C14.0004 6.87625 16.0442 5.90857 17.9121 6.55827V6.55827L12.7546 15.5324L11.3426 14.1203L13.3193 8.73284Z" fill="#3C4167"/>
<path d="M22.9046 7.13877C21.5429 5.88959 19.379 6.19663 18.4185 7.77532V7.77532L26.8963 13.2487L28.0404 11.8501L22.9046 7.13877Z" fill="#3C4167"/>
<path d="M11.3426 14.1202L13.2297 14.606L11.3426 18.3564L10.1569 16.9472L11.3426 14.1202Z" fill="#3C4167"/>
<path d="M14.5332 19.9047L19.9606 20.6054L16.4488 30.9945L13.3582 29.6836L14.5332 19.9047Z" fill="#3C4167"/>
<path d="M13.3672 29.4295C13.5101 27.3647 16.5142 27.2831 16.769 29.3371V29.3371C16.7948 29.5457 16.782 29.7573 16.7311 29.9613L14.4503 39.1043C14.3479 39.5149 13.968 39.7947 13.5454 39.7706V39.7706C13.0555 39.7427 12.6828 39.3198 12.7167 38.8302L13.3672 29.4295Z" fill="#3C4167"/>
<path d="M22.1682 19.7685L16.7784 20.6054L20.2902 30.9945L23.3288 29.6527L22.1682 19.7685Z" fill="#3C4167"/>
<path d="M23.3611 29.9463C23.2972 28.1981 20.9278 27.7154 20.185 29.2991V29.2991C20.0257 29.639 19.9856 30.0226 20.0713 30.3881L22.1316 39.1689C22.219 39.5412 22.5605 39.7975 22.9424 39.7774V39.7774C23.3733 39.7547 23.7063 39.3906 23.6905 38.9595L23.3611 29.9463Z" fill="#3C4167"/>
<path d="M25.1148 12.5306C24.9527 10.4195 26.6449 8.62815 28.7618 8.66986V8.66986C30.9739 8.71345 32.6194 10.7299 32.2186 12.9058L31.4003 17.3478C31.1325 18.8016 29.8453 19.8435 28.3676 19.8024V19.8024C26.8328 19.7598 25.5781 18.5649 25.4605 17.0341L25.1148 12.5306Z" fill="#3C4167"/>
<path d="M25.8136 10.0701L26.7735 12.1329L21.2791 17.7487L20.3725 16.9246L25.8136 10.0701Z" fill="#3C4167"/>
<path d="M32.0905 10.9592C31.5692 9.90612 29.9746 10.4007 30.1407 11.5639V11.5639C30.1599 11.698 30.2052 11.827 30.2741 11.9436L35.271 20.4013C35.5098 20.8054 36.0792 20.8453 36.3719 20.4784V20.4784C36.5341 20.2751 36.5641 19.9963 36.4487 19.7631L32.0905 10.9592Z" fill="#3C4167"/>
<path d="M25.8483 16.2414C26.0046 15.8711 26.3676 15.6304 26.7695 15.6304H30.0277C30.4773 15.6304 30.8717 15.9304 30.9915 16.3638L34.2272 28.0621C34.408 28.7158 33.8994 29.356 33.2218 29.3278L21.9863 28.8596C21.2891 28.8306 20.8352 28.1144 21.1067 27.4715L25.8483 16.2414Z" fill="#3C4167"/>
<path d="M35.0281 21.1906C35.1124 19.6482 36.3877 18.4407 37.9323 18.4407V18.4407C39.7155 18.4407 41.0788 20.0305 40.807 21.7928L39.963 27.2642C39.7438 28.6851 38.4265 29.6683 37.002 29.4742V29.4742C35.6413 29.2888 34.6509 28.0897 34.7258 26.7185L35.0281 21.1906Z" fill="#3C4167"/>
<path d="M31.0813 23.0929L36.7593 18.8272L37.227 20.1664L32.1056 24.5562L31.0813 23.0929Z" fill="#3C4167"/>
<path d="M43.3286 24.8429C43.6208 24.5855 43.666 24.1466 43.4323 23.835L40.2701 19.6188C39.9206 19.1528 39.2407 19.1012 38.8249 19.5093V19.5093C38.4587 19.8687 38.4386 20.4521 38.7791 20.8359L42.2768 24.7782C42.5497 25.0858 43.02 25.1148 43.3286 24.8429V24.8429Z" fill="#3C4167"/>
<path d="M38.4046 28.3079C38.514 28.7324 39.0368 28.8866 39.3591 28.5894L43.3542 24.9044C43.6231 24.6564 43.6745 24.251 43.476 23.9438V23.9438C43.2123 23.5356 42.6364 23.481 42.3008 23.8324L38.5467 27.7627C38.4083 27.9077 38.3545 28.1138 38.4046 28.3079V28.3079Z" fill="#3C4167"/>
<path d="M34.8236 25.8432C35.1219 24.46 36.8404 23.9657 37.828 24.9791V24.9791C38.3221 25.486 38.4675 26.2381 38.198 26.8927L36.2114 31.7171C35.8277 32.649 34.5786 32.815 33.9648 32.0158V32.0158C33.7308 31.7111 33.6426 31.3189 33.7236 30.9434L34.8236 25.8432Z" fill="#3C4167"/>
<path d="M39.5817 26.7893C39.4016 25.8955 38.5059 25.338 37.6244 25.5709V25.5709C36.7136 25.8115 36.2128 26.7892 36.5498 27.6689L38.5581 32.9118C38.8306 33.6232 39.7207 33.8575 40.3082 33.3725V33.3725C40.6252 33.1108 40.7724 32.6959 40.6912 32.2929L39.5817 26.7893Z" fill="#3C4167"/>
<path d="M33.7352 30.847C33.8058 29.7183 35.2291 29.2687 35.9353 30.1521V30.1521C36.1596 30.4327 36.2508 30.7971 36.1851 31.1504L34.761 38.806C34.7112 39.074 34.5223 39.2951 34.2653 39.386V39.386C33.7495 39.5686 33.2147 39.165 33.2489 38.6188L33.7352 30.847Z" fill="#3C4167"/>
<path d="M40.7034 32.4016C40.6921 31.7892 40.1925 31.2987 39.58 31.2987V31.2987C38.8921 31.2987 38.3658 31.9112 38.4692 32.5912L39.4742 39.2001C39.5215 39.5115 39.7765 39.7495 40.0903 39.7755V39.7755C40.4915 39.8087 40.8335 39.4879 40.8261 39.0854L40.7034 32.4016Z" fill="#3C4167"/>
<path d="M24.1112 28.0474C24.0759 27.202 24.6265 26.4433 25.4413 26.2148V26.2148C26.7479 25.8483 27.983 26.986 27.7249 28.3183L26.9871 32.1264C26.8947 32.6036 26.5564 32.9961 26.098 33.1579V33.1579C25.2292 33.4645 24.3115 32.8435 24.273 31.923L24.1112 28.0474Z" fill="#3C4167"/>
<path d="M32.0358 27.5284C32.0459 26.8184 31.6316 26.1709 30.9828 25.8825V25.8825C29.6614 25.2952 28.2303 26.4513 28.5268 27.8667L29.4536 32.2912C29.6158 33.0653 30.4373 33.5055 31.1716 33.2117V33.2117C31.6486 33.021 31.964 32.5621 31.9714 32.0485L32.0358 27.5284Z" fill="#3C4167"/>
<path d="M24.2513 31.7047C24.2407 30.9736 24.7947 30.3576 25.5228 30.2908V30.2908C26.4412 30.2064 27.1886 31.018 27.0292 31.9264L25.7538 39.1925C25.6947 39.5287 25.4027 39.774 25.0613 39.774V39.774C24.6769 39.774 24.3638 39.4654 24.3582 39.0811L24.2513 31.7047Z" fill="#3C4167"/>
<path d="M32.0263 29.3544C32.0394 28.33 31.0614 27.5825 30.0763 27.8639V27.8639C29.3259 28.0783 28.8572 28.8232 28.9885 29.5924L30.6359 39.2429C30.688 39.5481 30.9519 39.7718 31.2615 39.7732V39.7732C31.6116 39.7748 31.8975 39.4938 31.902 39.1437L32.0263 29.3544Z" fill="#3C4167"/>
<path d="M4.961 24.4205C4.8267 23.3207 5.61215 22.3213 6.71256 22.1918L7.72474 22.0727C8.8145 21.9445 9.80407 22.7183 9.94246 23.8068L10.3555 27.0553C10.49 28.1139 9.76986 29.0917 8.719 29.2771L7.69795 29.4573C6.56906 29.6565 5.50406 28.868 5.36512 27.7302L4.961 24.4205Z" fill="#3C4167"/>
<path d="M5.31831 28.3013C5.51122 27.7793 5.9129 27.3613 6.42678 27.1478L9.4599 25.8873L12.6237 29.4817C13.6569 30.6555 13.0039 32.5076 11.4631 32.7739L6.55291 33.6226C5.03445 33.885 3.80211 32.4039 4.3363 30.9585L5.31831 28.3013Z" fill="#3C4167"/>
<path d="M8.48805 24.4127C7.41722 24.2788 7.11924 22.8673 8.04459 22.312L11.1029 20.4769C11.4111 20.2919 11.8035 20.327 12.0741 20.5637V20.5637C12.4526 20.895 12.4508 21.4845 12.0702 21.8133L9.37138 24.1451C9.12809 24.3553 8.80709 24.4526 8.48805 24.4127V24.4127Z" fill="#3C4167"/>
<path d="M7.31202 24.4571C7.26037 24.0569 7.0314 23.7011 6.68849 23.4882L3.62209 21.5849C3.25147 21.3549 2.77059 21.4145 2.46732 21.728V21.728C2.11557 22.0916 2.12051 22.6702 2.4784 23.0278L5.03147 25.5787C5.93749 26.484 7.47592 25.7274 7.31202 24.4571V24.4571Z" fill="#3C4167"/>
<path d="M10.1307 17.2738C10.055 16.8572 10.375 16.4738 10.7984 16.4738V16.4738C11.1164 16.4738 11.3918 16.6945 11.4609 17.0049L12.3114 20.8254C12.4273 21.346 11.9818 21.8195 11.4551 21.7355V21.7355C11.1385 21.685 10.8882 21.4401 10.8309 21.1247L10.1307 17.2738Z" fill="#3C4167"/>
<path d="M5.62079 31.8503C5.62079 31.493 5.77758 31.1538 6.04968 30.9223V30.9223C6.94014 30.1647 8.28293 30.9743 8.02852 32.1154L7.23349 35.6814C7.14539 36.0765 6.78095 36.3473 6.3772 36.3177V36.3177C5.95078 36.2864 5.62079 35.9313 5.62079 35.5038L5.62079 31.8503Z" fill="#3C4167"/>
<path d="M5.62955 35.6291C5.61618 35.1746 5.98098 34.799 6.43566 34.799V34.799C6.89968 34.799 7.26798 35.1896 7.24073 35.6528L7.03438 39.1608C7.01412 39.5051 6.72898 39.774 6.38404 39.774V39.774C6.03171 39.774 5.74322 39.4939 5.73286 39.1417L5.62955 35.6291Z" fill="#3C4167"/>
<path d="M9.33093 31.3458C9.26669 30.1895 10.7062 29.6111 11.4598 30.4904V30.4904C11.657 30.7205 11.7608 31.0161 11.7507 31.319L11.6294 34.9583C11.6233 35.1415 11.5693 35.3198 11.4729 35.4757V35.4757C10.9326 36.3484 9.58985 36.0064 9.53292 34.9815L9.33093 31.3458Z" fill="#3C4167"/>
<path d="M9.58758 34.8341C9.66427 34.5207 9.88612 34.2628 10.1845 34.1402V34.1402C11.0247 33.7949 11.858 34.648 11.493 35.4798L9.77726 39.3902C9.6442 39.6935 9.30132 39.8446 8.98768 39.7383V39.7383C8.6741 39.632 8.49384 39.3036 8.57255 38.982L9.58758 34.8341Z" fill="#3C4167"/>
<path d="M4.5913 22.8646C4.51926 22.6824 4.63611 22.4807 4.83 22.4525L7.01295 22.1355C7.07387 22.1267 7.13604 22.1367 7.1911 22.1642V22.1642C7.45485 22.2961 7.39193 22.6892 7.10018 22.7321L4.91785 23.0534C4.77838 23.0739 4.64312 22.9957 4.5913 22.8646V22.8646Z" fill="#3C4167"/>
<path d="M6.54416 23.0449C6.08355 22.9528 6.09423 22.2906 6.55757 22.2134L9.64394 21.699C9.80499 21.6722 9.95909 21.7753 9.99565 21.9345V21.9345C10.0335 22.0992 9.93181 22.2638 9.76749 22.3037L6.7267 23.0412C6.66685 23.0557 6.60455 23.057 6.54416 23.0449V23.0449Z" fill="#3C4167"/>
<path d="M0.82696 18.3957C0.798015 18.3093 0.789853 18.2173 0.803138 18.1271V18.1271C0.886955 17.5583 1.6586 17.4455 1.90174 17.9665L3.77037 21.9706C3.97784 22.4152 3.75673 22.9418 3.29406 23.1049V23.1049C2.8567 23.2592 2.37777 23.0253 2.23046 22.5856L0.82696 18.3957Z" fill="#3C4167"/>
<path d="M15.5814 7.871C15.303 7.1864 15.7516 6.42446 16.4853 6.33581L17.8947 6.16554C18.3485 6.11071 18.7623 6.43029 18.8239 6.88322V6.88322C18.8324 6.94517 18.8338 7.00787 18.8283 7.07014L18.8266 7.0894C18.7844 7.5638 18.4161 7.94402 17.9433 8.00128L16.168 8.21631C15.9169 8.24671 15.6766 8.10525 15.5814 7.871V7.871Z" fill="#3C4167"/>
<path d="M21.7898 7.87484C22.0676 7.19168 21.6144 6.43254 20.8813 6.35285L18.9343 6.14123C18.5528 6.09976 18.2076 6.36963 18.1559 6.74987V6.74987C18.1358 6.89719 18.1626 7.0471 18.2325 7.17833L18.3138 7.33091C18.5047 7.68948 18.8587 7.9322 19.262 7.98104L21.2088 8.21683C21.4575 8.24695 21.6955 8.10685 21.7898 7.87484V7.87484Z" fill="#3C4167"/>
</svg>
