<svg width="49" height="39" viewBox="0 0 49 39" fill="none" xmlns="http://www.w3.org/2000/svg">
<rect x="10.5829" y="11.105" width="7.20932" height="13.5175" rx="3.60466" fill="#3C4167"/>
<path d="M10.8159 20.8622C11.2015 19.4775 12.877 18.9378 13.9984 19.8371V19.8371C14.638 20.3501 14.9004 21.2012 14.6606 21.9853L12.9923 27.4399C12.6804 28.4596 11.6008 29.0335 10.581 28.7216V28.7216C9.57941 28.4152 9.00467 27.3661 9.28567 26.3571L10.8159 20.8622Z" fill="#3C4167"/>
<path d="M14.0432 21.7561C14.0347 21.2829 14.2128 20.8254 14.5389 20.4824V20.4824C15.6992 19.2618 17.7507 20.1587 17.6427 21.8394L17.2156 28.4849C17.161 29.3347 16.4224 29.9759 15.5734 29.9106V29.9106C14.7877 29.8502 14.1768 29.2022 14.1627 28.4143L14.0432 21.7561Z" fill="#3C4167"/>
<path d="M10.9066 25.1318C12.0164 25.3336 12.6587 26.5062 12.2311 27.5501V27.5501C11.8889 28.3855 10.9739 28.8308 10.1053 28.5846L1.80041 26.2305C1.256 26.0762 0.864309 25.6005 0.817317 25.0366V25.0366C0.743097 24.146 1.53448 23.4276 2.41378 23.5875L10.9066 25.1318Z" fill="#3C4167"/>
<path d="M14.2262 28.7166C14.201 28.3983 14.2769 28.0802 14.4429 27.8075V27.8075C15.2473 26.486 17.2816 27.0729 17.2585 28.6197L17.1466 36.1141C17.1332 37.0134 16.1504 37.5602 15.3792 37.0974V37.0974C15.0556 36.9033 14.8459 36.5647 14.8162 36.1885L14.2262 28.7166Z" fill="#3C4167"/>
<path d="M16.891 7.95069C16.891 9.44379 15.6806 10.6542 14.1875 10.6542C12.6944 10.6542 11.484 9.44379 11.484 7.95069C11.484 6.45759 12.6944 5.24719 14.1875 5.24719C15.6806 5.24719 16.891 6.45759 16.891 7.95069Z" fill="#3C4167"/>
<path d="M14.9235 13.0285C14.8448 12.4774 15.0738 11.9273 15.5205 11.595L20.1914 8.11953C20.5233 7.87259 20.9549 7.80339 21.3473 7.93421V7.93421C22.2711 8.24215 22.5158 9.4343 21.788 10.0812L17.4365 13.9491C16.5313 14.7536 15.0948 14.2273 14.9235 13.0285V13.0285Z" fill="#3C4167"/>
<path d="M13.4876 13.5043C13.4196 13.7126 13.2952 13.8981 13.1281 14.0399L8.39807 18.0551C8.10504 18.3038 7.70879 18.3934 7.33729 18.2948V18.2948C6.42287 18.0521 6.15651 16.8828 6.8756 16.268L11.5914 12.2361C12.5012 11.4583 13.859 12.3664 13.4876 13.5043V13.5043Z" fill="#3C4167"/>
<path d="M23.2013 3.25601C23.4646 2.83789 23.9794 2.6537 24.4482 2.80995V2.80995C25.0863 3.02267 25.3734 3.76351 25.0453 4.35072L22.3438 9.18498C21.9057 9.96897 20.7986 10.025 20.2836 9.28926V9.28926C20.0025 8.88781 19.9896 8.35702 20.2507 7.94234L23.2013 3.25601Z" fill="#3C4167"/>
<path d="M5.09102 20.6766C4.82642 20.89 4.47361 20.9592 4.14802 20.8615V20.8615C3.38312 20.632 3.15867 19.6573 3.74617 19.1164L7.2187 15.9194C7.82407 15.362 8.79928 15.5762 9.11535 16.336V16.336C9.31752 16.822 9.17489 17.3831 8.76517 17.7135L5.09102 20.6766Z" fill="#3C4167"/>
<rect width="7.20932" height="13.5175" rx="3.60466" transform="matrix(-1 0 0 1 38.5189 10.6547)" fill="#3C4167"/>
<path d="M38.4522 21.2192C38.138 20.2393 37.0947 19.6938 36.1106 19.9948V19.9948C35.089 20.3072 34.5323 21.4068 34.8852 22.4152L36.8052 27.9009C37.131 28.8317 38.1437 29.3286 39.0793 29.0168V29.0168C40.0172 28.7041 40.529 27.695 40.2271 26.7536L38.4522 21.2192Z" fill="#3C4167"/>
<path d="M35.304 21.3714C35.3437 20.9938 35.2714 20.6129 35.0959 20.2762V20.2762C34.1765 18.5116 31.512 19.1208 31.4508 21.1097L31.2595 27.3271C31.2332 28.179 31.8413 28.919 32.6822 29.0583V29.0583C33.6486 29.2185 34.5503 28.5318 34.6528 27.5576L35.304 21.3714Z" fill="#3C4167"/>
<path d="M38.5143 25.8262C37.4255 25.7592 36.5669 26.739 36.7762 27.8096V27.8096C36.9385 28.6398 37.6969 29.2168 38.5403 29.1517L46.8046 28.5137C47.5229 28.4583 47.9916 27.7347 47.7485 27.0565V27.0565C47.6013 26.6455 47.2233 26.3617 46.7876 26.3349L38.5143 25.8262Z" fill="#3C4167"/>
<path d="M34.1106 26.9093C34.03 26.7687 33.9263 26.6428 33.8038 26.5368V26.5368C32.5436 25.4457 30.7459 27.0107 31.6531 28.4092L36.5897 36.0199C36.8094 36.3585 37.1856 36.5629 37.5892 36.5629V36.5629C38.5047 36.5629 39.078 35.5733 38.6227 34.7791L34.1106 26.9093Z" fill="#3C4167"/>
<path d="M32.6613 7.50074C32.6613 8.99384 33.8717 10.2042 35.3648 10.2042C36.8579 10.2042 38.0683 8.99384 38.0683 7.50074C38.0683 6.00764 36.8579 4.79724 35.3648 4.79724C33.8717 4.79724 32.6613 6.00764 32.6613 7.50074Z" fill="#3C4167"/>
<path d="M34.4134 12.7041C34.4717 12.2646 34.3514 11.82 34.0793 11.4699L30.5341 6.9078C30.2717 6.5702 29.8607 6.38243 29.4338 6.40512V6.40512C28.4515 6.45732 27.8775 7.5357 28.3827 8.37966L31.3504 13.3369C32.156 14.6827 34.207 14.259 34.4134 12.7041V12.7041Z" fill="#3C4167"/>
<path d="M34.9928 13.2753C35.0895 13.4779 35.2312 13.6557 35.4071 13.7952L41.2135 18.4004C41.5032 18.6302 41.8833 18.7123 42.2421 18.6226V18.6226C43.1598 18.3932 43.4563 17.2368 42.7622 16.5941L37.3244 11.5589C36.1324 10.4552 34.293 11.8092 34.9928 13.2753V13.2753Z" fill="#3C4167"/>
<path d="M29.6382 0.989646C29.563 0.480792 29.1263 0.103881 28.6119 0.103881V0.103881C28.0005 0.103881 27.5217 0.629899 27.579 1.23859L28.157 7.37665C28.2495 8.35894 29.4218 8.81638 30.1551 8.15635V8.15635C30.4541 7.88732 30.5984 7.48646 30.5396 7.08861L29.6382 0.989646Z" fill="#3C4167"/>
<path d="M42.287 22.7523C42.3793 23.0812 42.6279 23.3434 42.9514 23.4531V23.4531C43.709 23.71 44.4593 23.0475 44.2982 22.2639L43.2914 17.3684C43.0823 16.3514 41.7751 16.0504 41.1423 16.8736V16.8736C40.9092 17.1768 40.8328 17.5722 40.9362 17.9404L42.287 22.7523Z" fill="#3C4167"/>
</svg>
