<svg width="48" height="40" viewBox="0 0 48 40" fill="none" xmlns="http://www.w3.org/2000/svg">
<circle cx="23.5" cy="18.5" r="4.5" fill="#3C4167"/>
<circle cx="24.5" cy="9.40308" r="2.5" fill="#3C4167"/>
<circle cx="18" cy="27" r="3" fill="#3C4167"/>
<circle cx="12" cy="19.9031" r="2" fill="#3C4167"/>
<circle cx="28" cy="27.9031" r="1" fill="#3C4167"/>
<circle cx="15.5" cy="8.40308" r="0.5" fill="#3C4167"/>
<circle cx="35.5" cy="26.4031" r="0.5" fill="#3C4167"/>
<circle cx="9.5" cy="27.4031" r="0.5" fill="#3C4167"/>
<circle cx="16.5" cy="17.4031" r="0.5" fill="#3C4167"/>
<circle cx="32.5" cy="16.4031" r="1.5" fill="#3C4167"/>
<circle cx="37" cy="10" r="1" fill="#3C4167"/>
<circle cx="32" cy="22.9031" r="1" fill="#3C4167"/>
<circle cx="17" cy="12.9031" r="1" fill="#3C4167"/>
<path d="M42.2616 9.39373C43.5189 11.6596 42.8249 14.8907 40.3703 18.3919C37.9373 21.8621 33.866 25.4486 28.7231 28.3021C23.5802 31.1557 18.3825 32.7121 14.1505 32.9399C9.88075 33.1697 6.77193 32.0486 5.5147 29.7827C4.25748 27.5168 4.95145 24.2857 7.40609 20.7845C9.83906 17.3143 13.9104 13.7278 19.0533 10.8743C24.1962 8.02075 29.3939 6.46435 33.6259 6.23653C37.8956 6.00669 41.0044 7.12784 42.2616 9.39373Z" stroke="#3C4167"/>
</svg>
