<svg width="44" height="42" viewBox="0 0 44 42" fill="none" xmlns="http://www.w3.org/2000/svg">
<ellipse cx="22" cy="22.0001" rx="10.777" ry="10.777" fill="#3C4167"/>
<path d="M17.6891 27.5614C17.6891 27.5614 34.9323 23.2507 30.6215 24.3284C26.3107 25.406 26.3107 38.3383 26.3107 38.3383H17.6891V27.5614Z" fill="#3C4167"/>
<path d="M26.3108 27.5614C26.3108 27.5614 9.06766 23.2507 13.3784 24.3284C17.6892 25.406 17.6892 38.3383 17.6892 38.3383H26.3108V27.5614Z" fill="#3C4167"/>
<path d="M17.6891 37.0101C17.6891 36.4578 18.1369 36.0101 18.6891 36.0101H25.3107C25.863 36.0101 26.3107 36.4578 26.3107 37.0101V40.3986C26.3107 40.9509 25.863 41.3986 25.3107 41.3986H18.6891C18.1369 41.3986 17.6891 40.9509 17.6891 40.3986V37.0101Z" fill="#3C4167"/>
<path d="M15.5339 34.9324H28.4662V37.0878H15.5339V34.9324Z" fill="#181D46"/>
<rect x="20.3834" y="0.5" width="3.23309" height="6.78948" rx="1" fill="#3C4167"/>
<path d="M8.18517 6.33891C7.77268 5.97166 7.14058 6.00834 6.77333 6.42083L5.95338 7.34179C5.58613 7.75428 5.6228 8.38638 6.03529 8.75363L9.61245 11.9385C10.0249 12.3057 10.657 12.269 11.0243 11.8565L11.8442 10.9356C12.2115 10.5231 12.1748 9.89098 11.7623 9.52373L8.18517 6.33891Z" fill="#3C4167"/>
<path d="M35.9068 6.25712C36.3193 5.88988 36.9514 5.92655 37.3186 6.33904L38.1386 7.26001C38.5058 7.6725 38.4692 8.3046 38.0567 8.67185L34.4795 11.8567C34.067 12.2239 33.4349 12.1872 33.0677 11.7748L32.2477 10.8538C31.8805 10.4413 31.9171 9.8092 32.3296 9.44195L35.9068 6.25712Z" fill="#3C4167"/>
<path d="M1.5 20.5764C0.947714 20.5764 0.5 21.0241 0.5 21.5764L0.5 22.8095C0.5 23.3618 0.947715 23.8095 1.5 23.8095H6.28949C6.84177 23.8095 7.28948 23.3618 7.28948 22.8095V21.5764C7.28948 21.0241 6.84177 20.5764 6.28948 20.5764H1.5Z" fill="#3C4167"/>
<path d="M37.7106 20.5764C37.1583 20.5764 36.7106 21.0241 36.7106 21.5764V22.8095C36.7106 23.3618 37.1583 23.8095 37.7106 23.8095H42.5001C43.0523 23.8095 43.5001 23.3618 43.5001 22.8095V21.5764C43.5001 21.0241 43.0523 20.5764 42.5001 20.5764H37.7106Z" fill="#3C4167"/>
<circle cx="22.0001" cy="22.0001" r="5.6579" fill="#181D46"/>
<path d="M25.3948 22.0001C25.3948 23.8749 23.8749 25.3948 22 25.3948C20.1252 25.3948 18.6053 23.8749 18.6053 22.0001C18.6053 20.1252 20.1252 18.6053 22 18.6053C23.8749 18.6053 25.3948 20.1252 25.3948 22.0001Z" fill="#3C4167"/>
<path d="M20.527 15.0166C20.5599 14.4896 20.997 14.079 21.525 14.079H22.4751C23.0031 14.079 23.4402 14.4896 23.4731 15.0166L23.631 17.5429C23.667 18.1186 23.2098 18.6053 22.633 18.6053H21.3671C20.7903 18.6053 20.3331 18.1186 20.3691 17.5429L20.527 15.0166Z" fill="#181D46"/>
<path d="M20.527 28.9835C20.5599 29.5106 20.997 29.9211 21.525 29.9211H22.4751C23.0031 29.9211 23.4402 29.5106 23.4731 28.9835L23.631 26.4572C23.667 25.8815 23.2098 25.3948 22.633 25.3948H21.3671C20.7903 25.3948 20.3331 25.8815 20.3691 26.4572L20.527 28.9835Z" fill="#181D46"/>
<path d="M28.9835 23.4731C29.5106 23.4402 29.9211 23.0031 29.9211 22.475V21.525C29.9211 20.9969 29.5106 20.5599 28.9835 20.5269L26.4572 20.369C25.8815 20.3331 25.3948 20.7903 25.3948 21.3671V22.6329C25.3948 23.2098 25.8815 23.667 26.4572 23.631L28.9835 23.4731Z" fill="#181D46"/>
<path d="M15.0166 23.4731C14.4896 23.4402 14.079 23.0031 14.079 22.475V21.525C14.079 20.9969 14.4896 20.5599 15.0166 20.5269L17.5429 20.369C18.1186 20.3331 18.6053 20.7903 18.6053 21.3671V22.6329C18.6053 23.2098 18.1186 23.667 17.5429 23.631L15.0166 23.4731Z" fill="#181D46"/>
<path d="M16.0329 18.0884C15.6835 17.6925 15.7022 17.0931 16.0756 16.7197L16.7474 16.0479C17.1208 15.6745 17.7202 15.6558 18.1162 16.0052L20.0142 17.6799C20.4467 18.0615 20.4675 18.729 20.0597 19.1368L19.1646 20.0319C18.7567 20.4398 18.0893 20.419 17.7076 19.9864L16.0329 18.0884Z" fill="#181D46"/>
<path d="M25.8992 16.0052C26.2951 15.6558 26.8945 15.6745 27.2679 16.0479L27.9397 16.7197C28.3131 17.0931 28.3318 17.6925 27.9824 18.0884L26.3077 19.9865C25.926 20.419 25.2586 20.4398 24.8507 20.032L23.9557 19.1369C23.5478 18.729 23.5686 18.0616 24.0011 17.6799L25.8992 16.0052Z" fill="#181D46"/>
<path d="M25.8992 27.9813C26.2951 28.3306 26.8945 28.3119 27.2679 27.9385L27.9397 27.2667C28.3131 26.8933 28.3318 26.294 27.9824 25.898L26.3077 24C25.926 23.5675 25.2586 23.5466 24.8507 23.9545L23.9557 24.8496C23.5478 25.2575 23.5686 25.9249 24.0011 26.3065L25.8992 27.9813Z" fill="#181D46"/>
<path d="M18.1092 27.9819C17.7132 28.3312 17.1139 28.3125 16.7405 27.9391L16.0687 27.2674C15.6953 26.894 15.6766 26.2946 16.026 25.8986L17.7007 24.0006C18.0823 23.5681 18.7498 23.5472 19.1576 23.9551L20.0527 24.8502C20.4606 25.2581 20.4397 25.9255 20.0072 26.3071L18.1092 27.9819Z" fill="#181D46"/>
</svg>
