<svg width="36" height="30" viewBox="0 0 36 30" fill="none" xmlns="http://www.w3.org/2000/svg">
<path d="M0 3.45426C0 3.29757 0 3.21922 0.0224489 3.14685C0.0411544 3.08655 0.0729563 3.02737 0.11292 2.97849C0.160882 2.91984 0.224397 2.8778 0.351426 2.79374C4.58791 -0.0097669 8.58209 -0.66629 12.1127 0.657802C14.1215 1.41116 15.4089 3.07167 17.8996 4.69369C18.0407 4.78561 18.1113 4.83158 18.1594 4.88915C18.2011 4.9391 18.2308 4.99287 18.251 5.05474C18.2742 5.12606 18.2755 5.20196 18.2781 5.35376C18.3401 8.96436 18.7345 34.2575 17.5263 28.7624C16.9051 25.9369 14.4811 23.9136 10.218 22.9644C6.97176 22.2416 3.912 22.3282 1.74809 23.516C0.980855 23.9372 0.597236 24.1477 0.435085 24.1265C0.273131 24.1053 0.193157 24.058 0.0966369 23.9262C0 23.7943 0 23.4228 0 22.6798V3.45426Z" fill="#3C4167"/>
<path d="M36 3.45426C36 3.29757 36 3.21922 35.9776 3.14685C35.9588 3.08655 35.927 3.02737 35.8871 2.97849C35.8391 2.91984 35.7756 2.8778 35.6486 2.79374C31.4121 -0.0097669 27.4179 -0.66629 23.8873 0.657802C21.8785 1.41116 20.5911 3.07167 18.1004 4.69369C17.9593 4.78561 17.8887 4.83158 17.8406 4.88915C17.7989 4.9391 17.7692 4.99287 17.749 5.05474C17.7258 5.12606 17.7245 5.20196 17.7219 5.35376C17.6599 8.96436 17.2655 34.2575 18.4737 28.7624C19.0949 25.9369 21.5189 23.9136 25.782 22.9644C29.0282 22.2416 32.088 22.3282 34.2519 23.516C35.0191 23.9372 35.4028 24.1477 35.5649 24.1265C35.7269 24.1053 35.8068 24.058 35.9034 23.9262C36 23.7943 36 23.4228 36 22.6798V3.45426Z" fill="#3C4167"/>
<rect x="17" y="4" width="2" height="26" fill="#181D46"/>
</svg>
