<svg width="46" height="37" viewBox="0 0 46 37" fill="none" xmlns="http://www.w3.org/2000/svg">
<path d="M26.0657 9.86109C26.0657 11.5368 24.7073 12.8953 23.0315 12.8953C21.3558 12.8953 19.9973 11.5368 19.9973 9.86109C19.9973 8.18535 21.3558 6.8269 23.0315 6.8269C24.7073 6.8269 26.0657 8.18535 26.0657 9.86109Z" fill="#3C4167"/>
<path d="M18.4449 17.9521C18.4449 15.4386 20.4826 13.4009 22.9962 13.4009V13.4009C25.5098 13.4009 27.5475 15.4386 27.5475 17.9521V22.9586C27.5475 25.4721 25.5098 27.5098 22.9962 27.5098V27.5098V27.5098C20.4826 27.5098 18.4449 25.4721 18.4449 22.9585V17.9521Z" fill="#3C4167"/>
<path d="M36.0547 23.4719C35.9965 22.1304 34.8098 21.1216 33.4765 21.2802L23.3493 22.4843C21.9867 22.6463 21.0134 23.8823 21.1754 25.2449V25.2449C21.3414 26.6411 22.6318 27.6215 24.0214 27.4072L34.1007 25.8529C35.2638 25.6735 36.1057 24.6477 36.0547 23.4719V23.4719Z" fill="#3C4167"/>
<path d="M35.9995 24.0875C36.1343 23.1826 35.5741 22.319 34.693 22.073V22.073C33.6072 21.7699 32.5108 22.52 32.3999 23.6418L31.3704 34.0542C31.284 34.9283 31.9377 35.7007 32.8141 35.7599V35.7599C33.6232 35.8146 34.3387 35.2387 34.4582 34.4366L35.9995 24.0875Z" fill="#3C4167"/>
<path d="M9.93775 23.4719C9.99596 22.1304 11.1826 21.1216 12.516 21.2802L22.6431 22.4843C24.0057 22.6463 24.9791 23.8823 24.817 25.2449V25.2449C24.651 26.6411 23.3606 27.6215 21.9711 27.4072L11.8917 25.8529C10.7286 25.6735 9.88674 24.6477 9.93775 23.4719V23.4719Z" fill="#3C4167"/>
<path d="M9.99299 24.0875C9.85822 23.1826 10.4183 22.319 11.2995 22.073V22.073C12.3853 21.7699 13.4816 22.52 13.5926 23.6418L14.622 34.0542C14.7085 34.9283 14.0548 35.7007 13.1784 35.7599V35.7599C12.3693 35.8146 11.6538 35.2387 11.5343 34.4366L9.99299 24.0875Z" fill="#3C4167"/>
<path d="M20.7705 16.3629C21.2781 15.5201 21.0064 14.4254 20.1636 13.9178L13.7911 10.0796C13.0944 9.65998 12.1975 9.79777 11.6589 10.4071V10.4071C10.9734 11.1827 11.1426 12.387 12.0151 12.9438L18.2862 16.9455C19.1308 17.4844 20.2535 17.2211 20.7705 16.3629V16.3629Z" fill="#3C4167"/>
<path d="M13.5499 12.7064C14.2545 12.2283 14.4381 11.2694 13.96 10.5648L9.72584 4.32519C9.24768 3.62055 8.28883 3.43695 7.58419 3.91511V3.91511C6.87955 4.39328 6.69595 5.35213 7.17411 6.05677L11.4082 12.2963C11.8864 13.001 12.8453 13.1846 13.5499 12.7064V12.7064Z" fill="#3C4167"/>
<path d="M25.2402 16.3629C24.7326 15.5201 25.0043 14.4254 25.8471 13.9178L32.2196 10.0796C32.9163 9.65998 33.8132 9.79777 34.3518 10.4071V10.4071C35.0372 11.1827 34.8681 12.387 33.9956 12.9438L27.7245 16.9455C26.8799 17.4844 25.7572 17.2211 25.2402 16.3629V16.3629Z" fill="#3C4167"/>
<path d="M32.4609 12.7064C31.7563 12.2283 31.5727 11.2694 32.0508 10.5648L36.285 4.32519C36.7631 3.62055 37.722 3.43695 38.4266 3.91511V3.91511C39.1313 4.39328 39.3149 5.35213 38.8367 6.05677L34.6026 12.2963C34.1244 13.001 33.1656 13.1846 32.4609 12.7064V12.7064Z" fill="#3C4167"/>
<path d="M0.25 5.05676C0.25 4.63783 0.589612 4.29822 1.00855 4.29822H45.0042C45.4231 4.29822 45.7627 4.63783 45.7627 5.05676V5.05676C45.7627 5.4757 45.4231 5.81531 45.0042 5.81531H1.00854C0.589612 5.81531 0.25 5.4757 0.25 5.05676V5.05676Z" fill="#3C4167"/>
<path d="M2.77856 1.51709C2.77856 0.679226 3.45779 0 4.29565 0V0C5.13352 0 5.81275 0.679224 5.81275 1.51709V8.59684C5.81275 9.43471 5.13352 10.1139 4.29565 10.1139V10.1139C3.45779 10.1139 2.77856 9.43471 2.77856 8.59685V1.51709Z" fill="#3C4167"/>
<path d="M40.2001 1.51709C40.2001 0.679226 40.8793 0 41.7172 0V0C42.555 0 43.2343 0.679224 43.2343 1.51709V8.59684C43.2343 9.43471 42.555 10.1139 41.7172 10.1139V10.1139C40.8793 10.1139 40.2001 9.43471 40.2001 8.59685V1.51709Z" fill="#3C4167"/>
</svg>
