<svg width="34" height="40" viewBox="0 0 34 40" fill="none" xmlns="http://www.w3.org/2000/svg">
<path d="M9.19717 11.6929C9.33287 10.5967 10.3315 9.81801 11.4277 9.95371L14.405 10.3223L17.3823 10.6908C18.4785 10.8265 19.2571 11.8252 19.1214 12.9214V12.9214C18.9857 14.0176 17.9871 14.7962 16.8909 14.6605L10.9363 13.9234C9.84012 13.7877 9.06148 12.7891 9.19717 11.6929V11.6929V11.6929Z" fill="#3C4167"/>
<rect x="21.3519" y="11.1821" width="10" height="4" rx="2" transform="rotate(7.0566 21.3519 11.1821)" fill="#181D46"/>
<rect x="8.08191" y="12.5624" width="1" height="1" transform="rotate(7.0566 8.08191 12.5624)" fill="#3C4167"/>
<rect x="18.9985" y="13.9137" width="2" height="1" transform="rotate(7.0566 18.9985 13.9137)" fill="#3C4167"/>
<circle cx="21.5314" cy="5.66237" r="3.5" transform="rotate(7.0566 21.5314 5.66237)" fill="#3C4167"/>
<path d="M8.10462 10.8845C8.12633 9.88446 8.95175 9.08981 9.95186 9.1061L19.0736 9.25462V9.25462C19.4033 9.29541 19.6486 9.57909 19.6414 9.91121L19.6167 11.0472C19.5939 12.0991 18.7226 12.9334 17.6707 12.9106L9.88281 12.7416C8.87896 12.7198 8.08284 11.8883 8.10462 10.8845V10.8845Z" fill="#3C4167"/>
<path d="M11.4042 31.2054C10.3392 30.9121 9.71373 29.811 10.007 28.7461L12.4234 19.9731C12.7167 18.9081 13.8178 18.2826 14.8827 18.5759L15.3964 18.7174C16.4613 19.0107 17.0868 20.1118 16.7935 21.1767L14.3772 29.9498C14.0839 31.0147 12.9828 31.6402 11.9179 31.3469L11.4042 31.2054Z" fill="#3C4167"/>
<path d="M26.3087 30.6937C25.5994 31.3401 24.5309 31.3916 23.7628 30.8163L16.3741 25.283C15.4671 24.6038 15.305 23.3075 16.0167 22.4259L16.3113 22.061C17.0026 21.2046 18.256 21.0678 19.1158 21.7548L26.3447 27.5302C27.3055 28.2978 27.3525 29.7426 26.4434 30.571L26.3087 30.6937Z" fill="#3C4167"/>
<path d="M15.065 35.8259C14.3515 34.8004 14.6044 33.3906 15.63 32.677L23.1309 27.458C23.9561 26.8839 25.0624 26.9283 25.8388 27.5668V27.5668C26.9853 28.5097 26.9173 30.2859 25.7021 31.1384L18.221 36.3859C17.1954 37.1052 15.7805 36.8542 15.065 35.8259V35.8259Z" fill="#3C4167"/>
<path d="M4.12065 37.5074C3.21561 36.6201 3.20123 35.1671 4.08853 34.262L10.2645 27.9626C11.0707 27.1403 12.3466 27.0047 13.3076 27.6391V27.6391C14.5908 28.4861 14.7609 30.303 13.6573 31.3735L7.32511 37.5159C6.43148 38.3827 5.00966 38.3789 4.12065 37.5074V37.5074Z" fill="#3C4167"/>
<path d="M20.7861 10.5044C21.6509 10.0727 22.7022 10.3655 23.2193 11.1822L27.7591 18.3513C28.1483 18.9659 28.0077 19.7755 27.4339 20.2228V20.2228V20.2228C26.0045 21.2397 24.0064 20.763 23.19 19.2103L19.9598 13.0671C19.4683 12.1323 19.841 10.976 20.7861 10.5044V10.5044Z" fill="#3C4167"/>
<path d="M24.5437 19.929C23.9992 19.0918 24.2546 17.9702 25.1078 17.4512L28.9167 15.1345C29.7664 14.6176 30.8742 14.8875 31.391 15.7372V15.7372C31.9129 16.5951 31.6322 17.7141 30.7673 18.2242L26.9271 20.4888C26.1109 20.9702 25.0603 20.7234 24.5437 19.929V19.929Z" fill="#3C4167"/>
<path d="M22.1434 11.3425C23.2052 11.647 23.819 12.7546 23.5145 13.8164L20.6164 23.9202C20.3084 24.9941 19.1803 25.6074 18.1116 25.2821L13.3876 23.8444C12.3515 23.529 11.7547 22.4462 12.0413 21.4017L14.8023 11.3414C15.097 10.2675 16.212 9.64118 17.2824 9.9482L22.1434 11.3425Z" fill="#3C4167"/>
<path d="M9.35822 20.3656C8.358 20.3074 7.59516 19.448 7.65598 18.448L8.07829 11.5038C8.1407 10.4776 9.04765 9.71161 10.0698 9.82176V9.82176C11.0249 9.92468 11.7312 10.7588 11.6754 11.7178L11.2712 18.6631C11.2131 19.6615 10.3566 20.4237 9.35822 20.3656V20.3656Z" fill="#3C4167"/>
<rect x="18.5156" y="9.13098" width="2.64663" height="6.33276" rx="1.32331" transform="rotate(25.7076 18.5156 9.13098)" fill="#3C4167"/>
<path d="M16.3477 12.8027C16.0278 10.6617 18.0115 8.89702 20.1006 9.4641L21.8556 9.94049V9.94049C23.5099 10.5291 23.8129 12.7383 22.3781 13.7505L20.1909 15.2934C19.4885 15.789 18.5727 15.8651 17.7981 15.4922V15.4922C17.0913 15.1519 16.5989 14.4838 16.483 13.7081L16.3477 12.8027Z" fill="#3C4167"/>
</svg>
