<svg width="29" height="47" viewBox="0 0 29 47" fill="none" xmlns="http://www.w3.org/2000/svg">
<path d="M10.3771 13.0469C10.3771 14.6067 9.11264 15.8711 7.55291 15.8711C5.99317 15.8711 4.72876 14.6067 4.72876 13.0469C4.72876 11.4872 5.99317 10.2228 7.55291 10.2228C9.11264 10.2228 10.3771 11.4872 10.3771 13.0469Z" fill="#3C4167"/>
<path d="M10.8384 19.2893C9.32952 17.7555 9.55992 15.2337 11.3217 13.9987V13.9987C12.8968 12.8946 15.0689 13.2775 16.1714 14.8538L19.9072 20.1947C21.0991 21.8987 20.663 24.2488 18.9392 25.4118V25.4118V25.4118C18.117 25.833 17.1165 25.6714 16.4687 25.0129L10.8384 19.2893Z" fill="#3C4167"/>
<path d="M25.5329 36.1338C26.7323 35.608 27.2272 34.1702 26.6055 33.0177L21.2974 23.1757C20.6631 21.9997 19.1956 21.5606 18.0197 22.1948V22.1948C16.8171 22.8434 16.3899 24.3585 17.0765 25.5398L22.6958 35.2075C23.2684 36.1927 24.4893 36.5913 25.5329 36.1338V36.1338Z" fill="#3C4167"/>
<path d="M26.7893 34.0244C26.6761 33.0408 25.8844 32.2739 24.8977 32.1921V32.1921C23.4995 32.0762 22.391 33.3513 22.7003 34.7198L24.8183 44.0887C25.0065 44.9216 25.8298 45.448 26.6648 45.2695V45.2695C27.4502 45.1016 27.9794 44.3646 27.8876 43.5667L26.7893 34.0244Z" fill="#3C4167"/>
<path d="M12.134 36C11.048 35.5142 10.5136 34.2787 10.9032 33.1546L14.3436 23.226C14.8572 21.7439 16.5288 21.0184 17.9622 21.6555V21.6555C19.3029 22.2513 19.9147 23.8149 19.3344 25.1624L15.1782 34.8133C14.672 35.9886 13.3022 36.5226 12.134 36V36Z" fill="#3C4167"/>
<path d="M10.3022 33.9759C10.6924 33.2527 11.4537 32.8078 12.2753 32.8226V32.8226C14.0393 32.8545 15.0479 34.8478 14.0288 36.288L8.05653 44.7282C7.5699 45.4159 6.6273 45.5971 5.92036 45.1389V45.1389C5.23359 44.6937 5.00388 43.7957 5.39252 43.0754L10.3022 33.9759Z" fill="#3C4167"/>
<path d="M9.77799 15.9525C9.02679 15.9525 8.35986 16.4332 8.12232 17.1458L6.61211 21.6766C6.24319 22.7834 7.61779 23.6329 8.44271 22.8079V22.8079C8.49418 22.7565 8.54044 22.7 8.58082 22.6395L11.23 18.6658C12.0032 17.506 11.1718 15.9526 9.77799 15.9525V15.9525Z" fill="#3C4167"/>
<path d="M15.6648 25.6847C15.6648 25.4176 15.5125 25.174 15.2723 25.0572L8.05634 21.5463C7.47662 21.2643 6.77796 21.5039 6.49339 22.0824V22.0824C6.18297 22.7134 6.4949 23.4738 7.15905 23.705L14.7376 26.3437C15.1911 26.5016 15.6648 26.1649 15.6648 25.6847V25.6847Z" fill="#3C4167"/>
<path d="M15.6505 17.2726C14.8396 17.7866 13.7642 17.5279 13.2758 16.7013L7.93627 7.6652C7.44555 6.83475 8.04416 5.78567 9.00876 5.78562V5.78562C9.41107 5.7856 9.78862 5.97986 10.0225 6.30721L16.124 14.8473C16.6916 15.6418 16.4752 16.75 15.6505 17.2726V17.2726Z" fill="#3C4167"/>
<path d="M9.74302 7.4825C9.36169 7.89905 8.7374 7.98413 8.2585 7.68482L0.905237 3.08903C0.46652 2.81483 0.396933 2.20379 0.762763 1.83797V1.83797C1.0098 1.59093 1.38805 1.53158 1.69888 1.69107L9.41384 5.64974C10.1013 6.00248 10.2648 6.91257 9.74302 7.4825V7.4825Z" fill="#3C4167"/>
<path d="M11.7588 13.279C12.6481 12.3897 14.1686 13.0195 14.1687 14.2772V14.2772C14.1687 14.6284 14.0378 14.967 13.8015 15.2268L11.1402 18.1542C10.2144 19.1726 8.5202 18.5176 8.5202 17.1413V17.1413C8.5202 16.7419 8.67885 16.3589 8.96125 16.0765L11.7588 13.279Z" fill="#3C4167"/>
</svg>
