<svg width="42" height="20" viewBox="0 0 42 20" fill="none" xmlns="http://www.w3.org/2000/svg">
<path d="M30.4733 6.91849C30.4733 8.85819 28.9266 10.4306 27.0188 10.4306C25.1109 10.4306 23.5642 8.85819 23.5642 6.91849C23.5642 4.9788 25.1109 3.40637 27.0188 3.40637C28.9266 3.40637 30.4733 4.9788 30.4733 6.91849Z" fill="#3C4167"/>
<rect width="4.3537" height="20.1902" rx="2.17685" transform="matrix(0.707316 -0.706898 0.695113 0.718901 11.5 3.41089)" fill="#3C4167"/>
<rect width="3.86394" height="12.694" rx="1.93197" transform="matrix(-0.702051 -0.712126 0.700426 -0.713725 8.32306 12.1449)" fill="#3C4167"/>
<rect width="8.87013" height="7.10558" transform="matrix(-0.702051 -0.712126 0.700426 -0.713725 19.1485 18.8488)" fill="#3C4167"/>
<path d="M21 15.1848C25.5797 15.2499 26.9955 13.0867 30.1346 12.6611C33.2737 12.2354 35.6818 14.8209 40 15.1851" stroke="#181D46" stroke-width="3" stroke-linecap="round"/>
<path d="M21 15.1848C16.4203 15.2498 15.0045 13.0867 11.8654 12.661C8.72628 12.2353 5.88636 14.3818 2 15.1851" stroke="#181D46" stroke-width="3" stroke-linecap="round"/>
<rect x="16.6818" y="17.0159" width="4.31818" height="2.63409" fill="#181D46"/>
<path d="M21 16.941C25.5797 17.006 26.9955 14.8428 30.1346 14.4172C33.2737 13.9915 35.6818 16.577 40 16.9412" stroke="#3C4167" stroke-width="3" stroke-linecap="round"/>
<path d="M21 16.9409C16.4203 17.0059 15.0045 14.8428 11.8654 14.4171C8.72628 13.9915 5.88636 16.1379 2 16.9412" stroke="#3C4167" stroke-width="3" stroke-linecap="round"/>
</svg>
