<svg width="32" height="46" viewBox="0 0 32 46" fill="none" xmlns="http://www.w3.org/2000/svg">
<path d="M0 21.9613C0 21.8045 0 21.7262 0.0225509 21.6537C0.0412979 21.5934 0.0733761 21.5338 0.113417 21.485C0.161582 21.4263 0.224841 21.3847 0.351358 21.3013C4.10264 18.8311 7.63936 18.2556 10.7669 19.4285C12.5415 20.094 13.6827 21.556 15.87 22.9893C16.0114 23.082 16.0821 23.1283 16.1299 23.1858C16.1715 23.2358 16.2009 23.2892 16.221 23.3511C16.2441 23.4222 16.2454 23.4976 16.248 23.6485C16.3055 27.0199 16.6479 49.2723 15.5789 44.4103C15.0268 41.8988 12.8721 40.1003 9.08265 39.2566C6.30797 38.6388 3.68653 38.6862 1.77902 39.6295C0.978525 40.0254 0.57828 40.2233 0.420386 40.1979C0.259133 40.1718 0.187612 40.1274 0.0928188 39.9944C0 39.8642 0 39.4927 0 38.7497V21.9613Z" fill="#3C4167"/>
<path d="M32 21.9613C32 21.8045 32 21.7262 31.9774 21.6537C31.9587 21.5934 31.9266 21.5339 31.8866 21.485C31.8384 21.4263 31.7752 21.3847 31.6486 21.3013C27.8974 18.8311 24.3606 18.2556 21.2331 19.4285C19.4585 20.094 18.3173 21.556 16.13 22.9893C15.9886 23.082 15.9179 23.1283 15.8701 23.1858C15.8285 23.2358 15.7991 23.2892 15.779 23.3511C15.7559 23.4222 15.7546 23.4977 15.752 23.6485C15.6945 27.0199 15.3521 49.2723 16.4211 44.4103C16.9732 41.8988 19.1279 40.1003 22.9173 39.2566C25.692 38.6388 28.3135 38.6862 30.221 39.6295C31.0215 40.0254 31.4217 40.2233 31.5796 40.1979C31.7409 40.1718 31.8124 40.1274 31.9072 39.9944C32 39.8642 32 39.4927 32 38.7497V21.9613Z" fill="#3C4167"/>
<path d="M15.16 22.5L16 23L16.842 22.5V45.8438H15.1578L15.16 22.5Z" fill="#181D46"/>
<circle cx="16" cy="10.8438" r="5" fill="#3C4167"/>
<path d="M14 13.424C14 13.424 22 11.424 20 11.924C18 12.424 18 18.424 18 18.424H14V13.424Z" fill="#3C4167"/>
<path d="M18 13.424C18 13.424 10 11.424 12 11.924C14 12.424 14 18.424 14 18.424H18V13.424Z" fill="#3C4167"/>
<path d="M14 18.3437C14 17.7915 14.4477 17.3438 15 17.3438H17C17.5523 17.3438 18 17.7915 18 18.3438V18.8438C18 19.396 17.5523 19.8438 17 19.8438H15C14.4477 19.8438 14 19.396 14 18.8437V18.3437Z" fill="#3C4167"/>
<path d="M13 16.8438H19V17.8438H13V16.8438Z" fill="#181D46"/>
<rect x="15.25" y="0.34375" width="1.5" height="4" rx="0.75" fill="#3C4167"/>
<rect width="1.5" height="4" rx="0.75" transform="matrix(-0.664962 0.746878 0.746878 0.664962 9.01855 2.8147)" fill="#3C4167"/>
<rect x="23.0086" y="2.8147" width="1.5" height="4" rx="0.75" transform="rotate(48.3206 23.0086 2.8147)" fill="#3C4167"/>
<rect width="1.5" height="4" rx="0.75" transform="matrix(0 1 1 0 5.5 10.1832)" fill="#3C4167"/>
<rect width="1.5" height="4" rx="0.75" transform="matrix(0 1 1 0 22.5 10.1832)" fill="#3C4167"/>
</svg>
