<svg width="34" height="43" viewBox="0 0 34 43" fill="none" xmlns="http://www.w3.org/2000/svg">
<circle cx="17.7677" cy="5.19433" r="3.2837" transform="rotate(7.0566 17.7677 5.19433)" fill="#3C4167"/>
<path d="M5.94574 17.2084C5.1358 16.5495 5.16208 15.3045 5.99911 14.6804L13.4286 9.14094V9.14094C13.7248 8.96582 14.1056 9.04333 14.3098 9.32034L14.9768 10.2251C15.6297 11.1107 15.4037 12.3631 14.4825 12.9648L7.83333 17.307C7.24965 17.6882 6.48653 17.6483 5.94574 17.2084V17.2084Z" fill="#3C4167"/>
<path d="M10.7744 31.549C9.37658 31.549 8.40994 30.1516 8.90288 28.8436L11.6639 21.5175C11.8954 20.9033 12.4135 20.4417 13.0503 20.2825L14.444 19.9341C16.0289 19.5379 17.3945 21.106 16.7844 22.6214L13.6942 30.296C13.3894 31.053 12.6551 31.549 11.839 31.549L10.7744 31.549Z" fill="#3C4167"/>
<path d="M22.4929 31.7456C21.5521 32.6297 20.0326 32.404 19.3893 31.2847L15.2108 24.0141C14.6197 22.9856 15.0486 21.6717 16.1326 21.1899L17.021 20.795C17.9981 20.3608 19.144 20.7718 19.6221 21.7282L23.2814 29.0467C23.6766 29.8372 23.5062 30.7934 22.8621 31.3986L22.4929 31.7456Z" fill="#3C4167"/>
<path d="M23.695 40.3323C22.6798 40.5589 21.6674 39.941 21.4048 38.9344L19.2546 30.6921C18.9778 29.6309 19.5476 28.532 20.5746 28.1469V28.1469C21.8033 27.6862 23.1536 28.4291 23.4221 29.7136L25.1652 38.0514C25.3815 39.0858 24.7264 40.1021 23.695 40.3323V40.3323Z" fill="#3C4167"/>
<path d="M4.54631 39.802C3.77971 39.142 3.58608 38.0324 4.08382 37.1518L8.97587 28.4966C9.55233 27.4767 10.7581 26.9917 11.8802 27.3283V27.3283C13.4991 27.814 14.184 29.7292 13.2402 31.1314L7.68872 39.3791C6.9794 40.4329 5.50898 40.6308 4.54631 39.802V39.802Z" fill="#3C4167"/>
<path d="M18.6377 10.3412C19.5407 9.6974 20.8019 9.97061 21.3576 10.9304L25.751 18.519C25.9257 18.8207 26.0032 19.169 25.973 19.5163V19.5163C25.9186 20.1426 25.5223 20.6876 24.9433 20.9324L24.8757 20.961C24.0449 21.3124 23.0821 21.0018 22.6132 20.2312L18.1226 12.8507C17.6102 12.0085 17.8349 10.9135 18.6377 10.3412V10.3412Z" fill="#3C4167"/>
<path d="M23.1577 18.8562C23.5941 17.8968 24.7676 17.5296 25.673 18.0693L29.8805 20.5774C30.3651 20.8662 30.6273 21.419 30.5444 21.9769V21.9769C30.4121 22.8674 29.4818 23.3996 28.6471 23.0625L24.1052 21.2281C23.172 20.8512 22.741 19.7724 23.1577 18.8562V18.8562Z" fill="#3C4167"/>
<path d="M19.6148 9.42689C20.7135 9.54095 21.5116 10.5241 21.3976 11.6227L20.2222 22.9433C20.1158 23.9683 19.248 24.7446 18.2175 24.7367L13.1917 24.6978C12.0141 24.6887 11.0993 23.6693 11.2172 22.4976L12.4047 10.6954C12.5156 9.59395 13.5001 8.79204 14.6012 8.90636L19.6148 9.42689Z" fill="#3C4167"/>
<path d="M6.94374 22.8668C5.93763 23.1414 4.95958 22.3459 5.02346 21.3049L5.33801 16.179C5.40006 15.1678 6.29399 14.4132 7.30128 14.5217V14.5217C8.31323 14.6308 9.02679 15.5662 8.86453 16.571L8.04581 21.6408C7.95063 22.2302 7.51971 22.7096 6.94374 22.8668V22.8668Z" fill="#3C4167"/>
</svg>
